<?xml version="1.0" encoding="UTF-8" standalone="no"?>
<!DOCTYPE svg PUBLIC "-//W3C//DTD SVG 1.1//EN" "http://www.w3.org/Graphics/SVG/1.1/DTD/svg11.dtd">
<svg width="100%" height="100%" viewBox="0 0 400 300" version="1.1" xmlns="http://www.w3.org/2000/svg" xmlns:xlink="http://www.w3.org/1999/xlink" xml:space="preserve" xmlns:serif="http://www.serif.com/" style="fill-rule:evenodd;clip-rule:evenodd;stroke-linejoin:round;stroke-miterlimit:2;">
    <g transform="matrix(1,0,0,1,-200,-150)">
        <g id="Code-gray" serif:id="Code gray" transform="matrix(0.0394639,0,0,0.0394639,201.344,26.7946)">
            <path d="M3297.41,4966.37L3297.41,5341.25C3297.41,5419.45 3248.34,5489.23 3174.76,5515.69C3016.69,5572.52 2834.38,5602.08 2627.46,5602.08C2413.87,5602.08 2230.14,5559.14 2075.31,5477.53C1911.31,5391.08 1786.33,5267.83 1699.88,5108.27C1617.22,4955.7 1574.33,4780.12 1574.33,4580.78C1574.33,4368.6 1621.47,4180.11 1713.07,4014.67C1807.62,3843.91 1941.18,3711.92 2113.87,3618.83C2280.15,3529.18 2471.15,3482.85 2687.59,3482.85C2849.78,3482.85 3006.73,3502.57 3158.45,3541.81C3240.26,3562.97 3297.41,3636.77 3297.41,3721.27L3297.41,4191.7C3297.41,4258.49 3261.49,4320.11 3203.37,4353.01C3145.26,4385.92 3073.94,4385.02 3016.67,4350.66C2984.12,4331.13 2945.04,4316.74 2900.02,4305.89C2849.08,4293.62 2797.53,4287.47 2745.37,4287.47C2663.14,4287.47 2596.36,4305.4 2548.94,4352.58C2502.07,4399.22 2483.88,4464.35 2483.88,4544.23C2483.88,4622.7 2501.64,4686.57 2547.95,4731.97C2594.97,4778.05 2659.55,4796.28 2738.29,4796.28C2834.43,4796.28 2931.16,4770.52 3029.14,4721.53C3086.6,4692.8 3154.85,4695.87 3209.5,4729.64C3238.32,4747.46 3261.19,4772.47 3276.3,4801.6C3277.83,4860.4 3284.87,4915.32 3297.41,4966.37ZM3112.04,5341.25C2972.13,5391.56 2810.6,5416.71 2627.46,5416.71C2447.47,5416.71 2292.23,5382.32 2161.75,5313.55C2031.27,5244.77 1931.64,5146.91 1862.87,5019.97C1794.09,4893.03 1759.7,4746.63 1759.7,4580.78C1759.7,4402.36 1798.22,4243.58 1875.25,4104.46C1952.28,3965.33 2061.14,3857.85 2201.84,3781.99C2342.53,3706.14 2504.45,3668.22 2687.59,3668.22C2833.79,3668.22 2975.27,3685.9 3112.04,3721.27L3112.04,4191.7C3064.88,4163.41 3008.68,4141.4 2943.44,4125.68C2878.2,4109.96 2812.18,4102.1 2745.37,4102.1C2607.03,4102.1 2497.97,4141.79 2418.19,4221.18C2338.41,4300.57 2298.51,4408.25 2298.51,4544.23C2298.51,4679.43 2338.41,4786.13 2418.19,4864.34C2497.97,4942.55 2604.67,4981.65 2738.29,4981.65C2861.7,4981.65 2986.28,4950.21 3112.04,4887.33L3112.04,5341.25Z" style="fill:rgb(238,238,238);"/>
            <path d="M3096.86,4894.69C3092.67,4856.72 3090.56,4817.33 3090.56,4776.5C3090.56,4611.19 3129.59,4468.2 3203.63,4346.5C3279.63,4221.56 3387.26,4125.03 3527.82,4058.4C3657,3997.16 3805.49,3965.07 3973.91,3965.07C4149.1,3965.07 4300.53,3999.26 4429.04,4063.76C4567.18,4133.09 4672.5,4230.13 4746.48,4353.26C4787.76,4421.95 4817.65,4495.12 4835.91,4572.86C4816.15,4643.98 4806.3,4721.3 4806.3,4804.8C4806.3,4879.88 4813.41,4948.94 4827.69,5011.95C4790.4,5157.62 4718.41,5278.86 4614.74,5376.9C4460.8,5522.48 4247.96,5602.08 3971.55,5602.08C3697.24,5602.08 3485.96,5524.2 3333.08,5382.13C3221.25,5278.22 3146.29,5147.52 3112.04,4988.49L3112.04,4887.33L3096.86,4894.69ZM4671.89,4762.35C4671.89,4965.93 4610.38,5125.89 4487.37,5242.22C4364.36,5358.55 4192.42,5416.71 3971.55,5416.71C3752.25,5416.71 3581.49,5359.92 3459.26,5246.34C3337.04,5132.76 3275.93,4976.15 3275.93,4776.5C3275.93,4648.38 3304.62,4537.16 3361.99,4442.84C3419.37,4348.52 3501.12,4276.2 3607.23,4225.9C3713.34,4175.59 3835.57,4150.44 3973.91,4150.44C4116.96,4150.44 4240.96,4176.77 4345.89,4229.43C4450.82,4282.1 4531.39,4355.2 4587.59,4448.73C4643.79,4542.27 4671.89,4646.81 4671.89,4762.35ZM4162.55,4764.71C4162.55,4600.43 4099.67,4518.29 3973.91,4518.29C3848.14,4518.29 3785.26,4604.36 3785.26,4776.5C3785.26,4958.07 3848.93,5048.86 3976.27,5048.86C4100.46,5048.86 4162.55,4954.14 4162.55,4764.71ZM3974.54,4731.97C3972.38,4746.14 3970.63,4762.15 3970.63,4776.5C3970.63,4791.43 3971.16,4805.46 3972.45,4818.57C3975.14,4801.17 3977.18,4782.08 3977.18,4764.71C3977.18,4754.53 3976.07,4742.91 3974.54,4731.97Z" style="fill:rgb(238,238,238);"/>
            <path d="M4644.44,4575.43C4658.98,4507.91 4680.28,4444.61 4707.98,4385.45C4769.87,4253.28 4857.86,4151.27 4970.1,4077.85C5084.41,4003.06 5212.45,3965.07 5354.54,3965.07C5398.59,3965.07 5440.54,3969.19 5480.44,3977.18L5480.44,3599.84C5480.44,3497.46 5563.43,3414.47 5665.81,3414.47L6168.07,3414.47C6270.45,3414.47 6353.44,3497.46 6353.44,3599.84L6353.44,5387.23C6353.44,5489.61 6270.45,5572.6 6168.07,5572.6L5665.81,5572.6C5630.4,5572.6 5597.3,5562.67 5569.16,5545.43C5482.94,5583.83 5397.5,5602.08 5313.28,5602.08C5172.17,5602.08 5048.16,5565.92 4940.45,5496.44C4830.95,5425.82 4748.36,5327.62 4694.16,5200.6C4668.52,5140.51 4649.29,5074.66 4637.06,5002.95C4660.28,4930.99 4671.89,4850.79 4671.89,4762.35C4671.89,4696.47 4662.75,4634.16 4644.44,4575.43ZM5710.87,5387.23L6168.07,5387.23L6168.07,3599.84L5665.81,3599.84L5665.81,4300.18L5661.09,4300.18C5652.44,4276.59 5632.6,4252.82 5601.55,4228.84C5570.5,4204.87 5533.95,4185.81 5491.9,4171.66C5449.85,4157.51 5404.06,4150.44 5354.54,4150.44C5250,4150.44 5155.68,4177.95 5071.58,4232.97C4987.48,4287.99 4922.24,4365.02 4875.86,4464.06C4829.49,4563.1 4806.3,4676.68 4806.3,4804.8C4806.3,4928.99 4825.75,5036.67 4864.66,5127.85C4903.57,5219.03 4962.32,5289.97 5040.92,5340.66C5119.53,5391.36 5210.31,5416.71 5313.28,5416.71C5376.16,5416.71 5439.83,5401.58 5504.28,5371.32C5527.17,5360.57 5548.52,5348.41 5568.31,5334.81L5658.57,5425.07C5652,5406.24 5634.12,5352.89 5620.33,5292.64C5635.09,5278.48 5648.68,5263.24 5661.09,5246.93L5665.81,5246.93L5665.81,5387.23L5689.67,5387.23C5679.43,5407.83 5671.13,5422.84 5667.59,5429.08L5670.44,5427.67L5710.87,5387.23ZM5676.42,4747.03C5676.42,4674.71 5660.5,4618.51 5628.67,4578.43C5596.83,4538.34 5553.8,4518.29 5499.56,4518.29C5445.33,4518.29 5401.12,4543.25 5366.92,4593.16C5332.73,4643.07 5315.64,4709.69 5315.64,4793.01C5315.64,4963.57 5374.59,5048.86 5492.49,5048.86C5548.3,5048.86 5592.9,5025.86 5626.31,4979.88C5659.72,4933.9 5676.42,4866.89 5676.42,4778.86L5676.42,4747.03Z" style="fill:rgb(238,238,238);"/>
            <path d="M7652.72,5100.28C7723.61,5074.24 7774.16,5006.14 7774.16,4926.24L7774.16,4737.59C7774.16,4586.78 7742.95,4455.48 7684.13,4342.87C7621.01,4222.02 7528.71,4127.92 7406.79,4061.02C7293.12,3998.66 7156.87,3965.07 6996.93,3965.07C6842.18,3965.07 6700.83,4001.38 6572.54,4072.76C6438.53,4147.32 6337.78,4250.7 6269.47,4382.1C6205.1,4505.92 6171.35,4648.55 6171.35,4810.69C6171.35,5058.12 6253.31,5250.4 6406.92,5391.64C6554.48,5527.31 6758.64,5602.08 7024.04,5602.08C7224.85,5602.08 7395.36,5572.06 7536.2,5515.72C7606.58,5487.57 7652.72,5419.41 7652.72,5343.61L7652.72,5100.28ZM6842.47,4926.24C6851.12,4978.11 6880.99,5018.79 6932.08,5048.27C6983.17,5077.74 7050.77,5092.48 7134.87,5092.48C7251.99,5092.48 7362.82,5070.08 7467.36,5025.28L7467.36,5343.61C7345.52,5392.34 7197.75,5416.71 7024.04,5416.71C6813.39,5416.71 6649.51,5362.87 6532.39,5255.18C6415.27,5147.5 6356.72,4999.34 6356.72,4810.69C6356.72,4681 6382.46,4566.63 6433.94,4467.6C6485.43,4368.56 6561.67,4290.94 6662.67,4234.74C6763.67,4178.54 6875.09,4150.44 6996.93,4150.44C7121.9,4150.44 7228.8,4174.81 7317.62,4223.54C7406.44,4272.27 7473.84,4340.65 7519.82,4428.69C7565.8,4516.72 7588.8,4619.69 7588.8,4737.59L7588.8,4926.24L6842.47,4926.24ZM7144.3,4663.31C7144.3,4524.19 7094.39,4454.63 6994.57,4454.63C6952.91,4454.63 6917.93,4473.69 6889.63,4511.81C6861.34,4549.93 6844.83,4600.43 6840.11,4663.31L7144.3,4663.31ZM6990.01,4639.5L6986.51,4635.73L6984.45,4637.79L6986.76,4638.7L6990.01,4639.5Z" style="fill:rgb(238,238,238);"/>
            <path d="M8493.37,5177.37C8493.37,5049.33 8444.64,4946.16 8349.34,4866.86C8267.27,4798.58 8161.37,4759.73 8028.57,4759.73C7892.02,4759.73 7785.17,4799.49 7704.37,4867.77C7610.76,4946.86 7562.59,5049.65 7562.59,5177.37C7562.59,5299.71 7608.53,5402.78 7701.71,5485.99C7785.54,5560.86 7892.03,5602.08 8023.85,5602.08C8165.54,5602.08 8274.36,5560.41 8354.61,5490.19C8445.68,5410.5 8493.37,5306.86 8493.37,5177.37ZM8308,5177.37C8308,5248.9 8282.85,5306.67 8232.54,5350.69C8182.24,5394.7 8112.67,5416.71 8023.85,5416.71C7942.9,5416.71 7876.67,5393.72 7825.19,5347.74C7773.7,5301.76 7747.96,5244.97 7747.96,5177.37C7747.96,5108.2 7773.31,5052.2 7824.01,5009.36C7874.71,4966.52 7942.9,4945.1 8028.57,4945.1C8111.89,4945.1 8179.29,4966.52 8230.77,5009.36C8282.26,5052.2 8308,5108.2 8308,5177.37Z" style="fill:rgb(238,238,238);"/>
            <g transform="matrix(2414.64,0,0,2414.64,1687.78,5387.23)">
                <path d="M0.59,-0.019C0.532,0.002 0.465,0.012 0.389,0.012C0.315,0.012 0.25,-0.002 0.196,-0.031C0.142,-0.059 0.101,-0.1 0.073,-0.152C0.044,-0.205 0.03,-0.265 0.03,-0.334C0.03,-0.408 0.046,-0.474 0.078,-0.531C0.11,-0.589 0.155,-0.633 0.213,-0.665C0.271,-0.696 0.338,-0.712 0.414,-0.712C0.475,-0.712 0.533,-0.705 0.59,-0.69L0.59,-0.495C0.57,-0.507 0.547,-0.516 0.52,-0.522C0.493,-0.529 0.466,-0.532 0.438,-0.532C0.381,-0.532 0.336,-0.516 0.302,-0.483C0.269,-0.45 0.253,-0.405 0.253,-0.349C0.253,-0.293 0.269,-0.249 0.302,-0.217C0.336,-0.184 0.38,-0.168 0.435,-0.168C0.486,-0.168 0.538,-0.181 0.59,-0.207L0.59,-0.019Z" style="fill:rgb(213,213,213);fill-rule:nonzero;"/>
            </g>
            <g transform="matrix(2414.64,0,0,2414.64,3208.72,5387.23)">
                <path d="M0.606,-0.259C0.606,-0.174 0.58,-0.108 0.53,-0.06C0.479,-0.012 0.407,0.012 0.316,0.012C0.225,0.012 0.154,-0.011 0.104,-0.058C0.053,-0.105 0.028,-0.17 0.028,-0.253C0.028,-0.306 0.04,-0.352 0.063,-0.391C0.087,-0.43 0.121,-0.46 0.165,-0.481C0.209,-0.502 0.26,-0.512 0.317,-0.512C0.376,-0.512 0.427,-0.501 0.471,-0.479C0.514,-0.458 0.548,-0.427 0.571,-0.389C0.594,-0.35 0.606,-0.307 0.606,-0.259ZM0.395,-0.258C0.395,-0.326 0.369,-0.36 0.317,-0.36C0.265,-0.36 0.239,-0.324 0.239,-0.253C0.239,-0.178 0.265,-0.14 0.318,-0.14C0.369,-0.14 0.395,-0.179 0.395,-0.258Z" style="fill:rgb(213,213,213);fill-rule:nonzero;"/>
            </g>
            <g transform="matrix(2414.64,0,0,2414.64,4739.09,5387.23)">
                <path d="M0.384,-0L0.384,-0.058L0.382,-0.058C0.365,-0.036 0.344,-0.019 0.317,-0.007C0.29,0.006 0.264,0.012 0.238,0.012C0.195,0.012 0.158,0.002 0.125,-0.019C0.092,-0.04 0.068,-0.07 0.052,-0.107C0.036,-0.145 0.028,-0.19 0.028,-0.241C0.028,-0.294 0.037,-0.341 0.057,-0.382C0.076,-0.423 0.103,-0.455 0.138,-0.478C0.173,-0.501 0.212,-0.512 0.255,-0.512C0.275,-0.512 0.294,-0.509 0.312,-0.503C0.329,-0.498 0.344,-0.49 0.357,-0.48C0.37,-0.47 0.378,-0.46 0.382,-0.45L0.384,-0.45L0.384,-0.74L0.592,-0.74L0.592,-0L0.384,-0ZM0.388,-0.265C0.388,-0.295 0.382,-0.318 0.368,-0.335C0.355,-0.352 0.337,-0.36 0.315,-0.36C0.292,-0.36 0.274,-0.35 0.26,-0.329C0.246,-0.308 0.239,-0.281 0.239,-0.246C0.239,-0.175 0.263,-0.14 0.312,-0.14C0.335,-0.14 0.354,-0.15 0.367,-0.169C0.381,-0.188 0.388,-0.215 0.388,-0.252L0.388,-0.265Z" style="fill:rgb(213,213,213);fill-rule:nonzero;"/>
            </g>
            <g transform="matrix(2414.64,0,0,2414.64,6289.51,5387.23)">
                <path d="M0.229,-0.191C0.233,-0.169 0.245,-0.153 0.266,-0.14C0.287,-0.128 0.315,-0.122 0.35,-0.122C0.399,-0.122 0.444,-0.131 0.488,-0.15L0.488,-0.018C0.437,0.002 0.376,0.012 0.304,0.012C0.217,0.012 0.149,-0.01 0.101,-0.055C0.052,-0.099 0.028,-0.161 0.028,-0.239C0.028,-0.292 0.038,-0.34 0.06,-0.381C0.081,-0.422 0.113,-0.454 0.155,-0.477C0.196,-0.501 0.243,-0.512 0.293,-0.512C0.345,-0.512 0.389,-0.502 0.426,-0.482C0.463,-0.462 0.49,-0.433 0.51,-0.397C0.529,-0.361 0.538,-0.318 0.538,-0.269L0.538,-0.191L0.229,-0.191ZM0.354,-0.3C0.354,-0.357 0.333,-0.386 0.292,-0.386C0.275,-0.386 0.26,-0.378 0.249,-0.363C0.237,-0.347 0.23,-0.326 0.228,-0.3L0.354,-0.3Z" style="fill:rgb(213,213,213);fill-rule:nonzero;"/>
            </g>
            <g transform="matrix(2414.64,0,0,2414.64,7641.85,5387.23)">
                <path d="M0.276,-0.087C0.276,-0.057 0.265,-0.033 0.245,-0.015C0.224,0.003 0.195,0.012 0.158,0.012C0.125,0.012 0.097,0.003 0.076,-0.016C0.055,-0.035 0.044,-0.059 0.044,-0.087C0.044,-0.116 0.054,-0.139 0.075,-0.156C0.096,-0.174 0.125,-0.183 0.16,-0.183C0.195,-0.183 0.223,-0.174 0.244,-0.156C0.265,-0.139 0.276,-0.116 0.276,-0.087Z" style="fill:rgb(213,213,213);fill-rule:nonzero;"/>
            </g>
        </g>
        <g id="Code-colorful" serif:id="Code colorful" transform="matrix(0.0394639,0,0,0.0394639,201.344,26.7946)">
            <path d="M3297.41,4966.37L3297.41,5341.25C3297.41,5419.45 3248.34,5489.23 3174.76,5515.69C3016.69,5572.52 2834.38,5602.08 2627.46,5602.08C2413.87,5602.08 2230.14,5559.14 2075.31,5477.53C1911.31,5391.08 1786.33,5267.83 1699.88,5108.27C1617.22,4955.7 1574.33,4780.12 1574.33,4580.78C1574.33,4368.6 1621.47,4180.11 1713.07,4014.67C1807.62,3843.91 1941.18,3711.92 2113.87,3618.83C2280.15,3529.18 2471.15,3482.85 2687.59,3482.85C2849.78,3482.85 3006.73,3502.57 3158.45,3541.81C3240.26,3562.97 3297.41,3636.77 3297.41,3721.27L3297.41,4191.7C3297.41,4258.49 3261.49,4320.11 3203.37,4353.01C3145.26,4385.92 3073.94,4385.02 3016.67,4350.66C2984.12,4331.13 2945.04,4316.74 2900.02,4305.89C2849.08,4293.62 2797.53,4287.47 2745.37,4287.47C2663.14,4287.47 2596.36,4305.4 2548.94,4352.58C2502.07,4399.22 2483.88,4464.35 2483.88,4544.23C2483.88,4622.7 2501.64,4686.57 2547.95,4731.97C2594.97,4778.05 2659.55,4796.28 2738.29,4796.28C2834.43,4796.28 2931.16,4770.52 3029.14,4721.53C3086.6,4692.8 3154.85,4695.87 3209.5,4729.64C3238.32,4747.46 3261.19,4772.47 3276.3,4801.6C3277.83,4860.4 3284.87,4915.32 3297.41,4966.37ZM3112.04,5341.25C2972.13,5391.56 2810.6,5416.71 2627.46,5416.71C2447.47,5416.71 2292.23,5382.32 2161.75,5313.55C2031.27,5244.77 1931.64,5146.91 1862.87,5019.97C1794.09,4893.03 1759.7,4746.63 1759.7,4580.78C1759.7,4402.36 1798.22,4243.58 1875.25,4104.46C1952.28,3965.33 2061.14,3857.85 2201.84,3781.99C2342.53,3706.14 2504.45,3668.22 2687.59,3668.22C2833.79,3668.22 2975.27,3685.9 3112.04,3721.27L3112.04,4191.7C3064.88,4163.41 3008.68,4141.4 2943.44,4125.68C2878.2,4109.96 2812.18,4102.1 2745.37,4102.1C2607.03,4102.1 2497.97,4141.79 2418.19,4221.18C2338.41,4300.57 2298.51,4408.25 2298.51,4544.23C2298.51,4679.43 2338.41,4786.13 2418.19,4864.34C2497.97,4942.55 2604.67,4981.65 2738.29,4981.65C2861.7,4981.65 2986.28,4950.21 3112.04,4887.33L3112.04,5341.25Z" style="fill:rgb(238,238,238);"/>
            <path d="M3096.86,4894.69C3092.67,4856.72 3090.56,4817.33 3090.56,4776.5C3090.56,4611.19 3129.59,4468.2 3203.63,4346.5C3279.63,4221.56 3387.26,4125.03 3527.82,4058.4C3657,3997.16 3805.49,3965.07 3973.91,3965.07C4149.1,3965.07 4300.53,3999.26 4429.04,4063.76C4567.18,4133.09 4672.5,4230.13 4746.48,4353.26C4787.76,4421.95 4817.65,4495.12 4835.91,4572.86C4816.15,4643.98 4806.3,4721.3 4806.3,4804.8C4806.3,4879.88 4813.41,4948.94 4827.69,5011.95C4790.4,5157.62 4718.41,5278.86 4614.74,5376.9C4460.8,5522.48 4247.96,5602.08 3971.55,5602.08C3697.24,5602.08 3485.96,5524.2 3333.08,5382.13C3221.25,5278.22 3146.29,5147.52 3112.04,4988.49L3112.04,4887.33L3096.86,4894.69ZM4671.89,4762.35C4671.89,4965.93 4610.38,5125.89 4487.37,5242.22C4364.36,5358.55 4192.42,5416.71 3971.55,5416.71C3752.25,5416.71 3581.49,5359.92 3459.26,5246.34C3337.04,5132.76 3275.93,4976.15 3275.93,4776.5C3275.93,4648.38 3304.62,4537.16 3361.99,4442.84C3419.37,4348.52 3501.12,4276.2 3607.23,4225.9C3713.34,4175.59 3835.57,4150.44 3973.91,4150.44C4116.96,4150.44 4240.96,4176.77 4345.89,4229.43C4450.82,4282.1 4531.39,4355.2 4587.59,4448.73C4643.79,4542.27 4671.89,4646.81 4671.89,4762.35ZM4162.55,4764.71C4162.55,4600.43 4099.67,4518.29 3973.91,4518.29C3848.14,4518.29 3785.26,4604.36 3785.26,4776.5C3785.26,4958.07 3848.93,5048.86 3976.27,5048.86C4100.46,5048.86 4162.55,4954.14 4162.55,4764.71ZM3974.54,4731.97C3972.38,4746.14 3970.63,4762.15 3970.63,4776.5C3970.63,4791.43 3971.16,4805.46 3972.45,4818.57C3975.14,4801.17 3977.18,4782.08 3977.18,4764.71C3977.18,4754.53 3976.07,4742.91 3974.54,4731.97Z" style="fill:rgb(238,238,238);"/>
            <path d="M4644.44,4575.43C4658.98,4507.91 4680.28,4444.61 4707.98,4385.45C4769.87,4253.28 4857.86,4151.27 4970.1,4077.85C5084.41,4003.06 5212.45,3965.07 5354.54,3965.07C5398.59,3965.07 5440.54,3969.19 5480.44,3977.18L5480.44,3599.84C5480.44,3497.46 5563.43,3414.47 5665.81,3414.47L6168.07,3414.47C6270.45,3414.47 6353.44,3497.46 6353.44,3599.84L6353.44,5387.23C6353.44,5489.61 6270.45,5572.6 6168.07,5572.6L5665.81,5572.6C5630.4,5572.6 5597.3,5562.67 5569.16,5545.43C5482.94,5583.83 5397.5,5602.08 5313.28,5602.08C5172.17,5602.08 5048.16,5565.92 4940.45,5496.44C4830.95,5425.82 4748.36,5327.62 4694.16,5200.6C4668.52,5140.51 4649.29,5074.66 4637.06,5002.95C4660.28,4930.99 4671.89,4850.79 4671.89,4762.35C4671.89,4696.47 4662.75,4634.16 4644.44,4575.43ZM5710.87,5387.23L6168.07,5387.23L6168.07,3599.84L5665.81,3599.84L5665.81,4300.18L5661.09,4300.18C5652.44,4276.59 5632.6,4252.82 5601.55,4228.84C5570.5,4204.87 5533.95,4185.81 5491.9,4171.66C5449.85,4157.51 5404.06,4150.44 5354.54,4150.44C5250,4150.44 5155.68,4177.95 5071.58,4232.97C4987.48,4287.99 4922.24,4365.02 4875.86,4464.06C4829.49,4563.1 4806.3,4676.68 4806.3,4804.8C4806.3,4928.99 4825.75,5036.67 4864.66,5127.85C4903.57,5219.03 4962.32,5289.97 5040.92,5340.66C5119.53,5391.36 5210.31,5416.71 5313.28,5416.71C5376.16,5416.71 5439.83,5401.58 5504.28,5371.32C5527.17,5360.57 5548.52,5348.41 5568.31,5334.81L5658.57,5425.07C5652,5406.24 5634.12,5352.89 5620.33,5292.64C5635.09,5278.48 5648.68,5263.24 5661.09,5246.93L5665.81,5246.93L5665.81,5387.23L5689.67,5387.23C5679.43,5407.83 5671.13,5422.84 5667.59,5429.08L5670.44,5427.67L5710.87,5387.23ZM5676.42,4747.03C5676.42,4674.71 5660.5,4618.51 5628.67,4578.43C5596.83,4538.34 5553.8,4518.29 5499.56,4518.29C5445.33,4518.29 5401.12,4543.25 5366.92,4593.16C5332.73,4643.07 5315.64,4709.69 5315.64,4793.01C5315.64,4963.57 5374.59,5048.86 5492.49,5048.86C5548.3,5048.86 5592.9,5025.86 5626.31,4979.88C5659.72,4933.9 5676.42,4866.89 5676.42,4778.86L5676.42,4747.03Z" style="fill:rgb(238,238,238);"/>
            <path d="M7652.72,5100.28C7723.61,5074.24 7774.16,5006.14 7774.16,4926.24L7774.16,4737.59C7774.16,4586.78 7742.95,4455.48 7684.13,4342.87C7621.01,4222.02 7528.71,4127.92 7406.79,4061.02C7293.12,3998.66 7156.87,3965.07 6996.93,3965.07C6842.18,3965.07 6700.83,4001.38 6572.54,4072.76C6438.53,4147.32 6337.78,4250.7 6269.47,4382.1C6205.1,4505.92 6171.35,4648.55 6171.35,4810.69C6171.35,5058.12 6253.31,5250.4 6406.92,5391.64C6554.48,5527.31 6758.64,5602.08 7024.04,5602.08C7224.85,5602.08 7395.36,5572.06 7536.2,5515.72C7606.58,5487.57 7652.72,5419.41 7652.72,5343.61L7652.72,5100.28ZM6842.47,4926.24C6851.12,4978.11 6880.99,5018.79 6932.08,5048.27C6983.17,5077.74 7050.77,5092.48 7134.87,5092.48C7251.99,5092.48 7362.82,5070.08 7467.36,5025.28L7467.36,5343.61C7345.52,5392.34 7197.75,5416.71 7024.04,5416.71C6813.39,5416.71 6649.51,5362.87 6532.39,5255.18C6415.27,5147.5 6356.72,4999.34 6356.72,4810.69C6356.72,4681 6382.46,4566.63 6433.94,4467.6C6485.43,4368.56 6561.67,4290.94 6662.67,4234.74C6763.67,4178.54 6875.09,4150.44 6996.93,4150.44C7121.9,4150.44 7228.8,4174.81 7317.62,4223.54C7406.44,4272.27 7473.84,4340.65 7519.82,4428.69C7565.8,4516.72 7588.8,4619.69 7588.8,4737.59L7588.8,4926.24L6842.47,4926.24ZM7144.3,4663.31C7144.3,4524.19 7094.39,4454.63 6994.57,4454.63C6952.91,4454.63 6917.93,4473.69 6889.63,4511.81C6861.34,4549.93 6844.83,4600.43 6840.11,4663.31L7144.3,4663.31ZM6990.01,4639.5L6986.51,4635.73L6984.45,4637.79L6986.76,4638.7L6990.01,4639.5Z" style="fill:rgb(238,238,238);"/>
            <path d="M8493.37,5177.37C8493.37,5049.33 8444.64,4946.16 8349.34,4866.86C8267.27,4798.58 8161.37,4759.73 8028.57,4759.73C7892.02,4759.73 7785.17,4799.49 7704.37,4867.77C7610.76,4946.86 7562.59,5049.65 7562.59,5177.37C7562.59,5299.71 7608.53,5402.78 7701.71,5485.99C7785.54,5560.86 7892.03,5602.08 8023.85,5602.08C8165.54,5602.08 8274.36,5560.41 8354.61,5490.19C8445.68,5410.5 8493.37,5306.86 8493.37,5177.37ZM8308,5177.37C8308,5248.9 8282.85,5306.67 8232.54,5350.69C8182.24,5394.7 8112.67,5416.71 8023.85,5416.71C7942.9,5416.71 7876.67,5393.72 7825.19,5347.74C7773.7,5301.76 7747.96,5244.97 7747.96,5177.37C7747.96,5108.2 7773.31,5052.2 7824.01,5009.36C7874.71,4966.52 7942.9,4945.1 8028.57,4945.1C8111.89,4945.1 8179.29,4966.52 8230.77,5009.36C8282.26,5052.2 8308,5108.2 8308,5177.37Z" style="fill:rgb(238,238,238);"/>
            <path d="M3112.04,5341.25C2972.13,5391.56 2810.6,5416.71 2627.46,5416.71C2447.47,5416.71 2292.23,5382.32 2161.75,5313.55C2031.27,5244.77 1931.64,5146.91 1862.87,5019.97C1794.09,4893.03 1759.7,4746.63 1759.7,4580.78C1759.7,4402.36 1798.22,4243.58 1875.25,4104.46C1952.28,3965.33 2061.14,3857.85 2201.84,3781.99C2342.53,3706.14 2504.45,3668.22 2687.59,3668.22C2833.79,3668.22 2975.27,3685.9 3112.04,3721.27L3112.04,4191.7C3064.88,4163.41 3008.68,4141.4 2943.44,4125.68C2878.2,4109.96 2812.18,4102.1 2745.37,4102.1C2607.03,4102.1 2497.97,4141.79 2418.19,4221.18C2338.41,4300.57 2298.51,4408.25 2298.51,4544.23C2298.51,4679.43 2338.41,4786.13 2418.19,4864.34C2497.97,4942.55 2604.67,4981.65 2738.29,4981.65C2861.7,4981.65 2986.28,4950.21 3112.04,4887.33L3112.04,5341.25Z" style="fill:url(#_Linear1);fill-rule:nonzero;"/>
            <path d="M4671.89,4762.35C4671.89,4965.93 4610.38,5125.89 4487.37,5242.22C4364.36,5358.55 4192.42,5416.71 3971.55,5416.71C3752.25,5416.71 3581.49,5359.92 3459.26,5246.34C3337.04,5132.76 3275.93,4976.15 3275.93,4776.5C3275.93,4648.38 3304.62,4537.16 3361.99,4442.84C3419.37,4348.52 3501.12,4276.2 3607.23,4225.9C3713.34,4175.59 3835.57,4150.44 3973.91,4150.44C4116.96,4150.44 4240.96,4176.77 4345.89,4229.43C4450.82,4282.1 4531.39,4355.2 4587.59,4448.73C4643.79,4542.27 4671.89,4646.81 4671.89,4762.35ZM4162.55,4764.71C4162.55,4600.43 4099.67,4518.29 3973.91,4518.29C3848.14,4518.29 3785.26,4604.36 3785.26,4776.5C3785.26,4958.07 3848.93,5048.86 3976.27,5048.86C4100.46,5048.86 4162.55,4954.14 4162.55,4764.71Z" style="fill:url(#_Linear2);fill-rule:nonzero;"/>
            <path d="M5665.81,5387.23L5665.81,5246.93L5661.09,5246.93C5621,5299.59 5568.73,5341.06 5504.28,5371.32C5439.83,5401.58 5376.16,5416.71 5313.28,5416.71C5210.31,5416.71 5119.53,5391.36 5040.92,5340.66C4962.32,5289.97 4903.57,5219.03 4864.66,5127.85C4825.75,5036.67 4806.3,4928.99 4806.3,4804.8C4806.3,4676.68 4829.49,4563.1 4875.86,4464.06C4922.24,4365.02 4987.48,4287.99 5071.58,4232.97C5155.68,4177.95 5250,4150.44 5354.54,4150.44C5404.06,4150.44 5449.85,4157.51 5491.9,4171.66C5533.95,4185.81 5570.5,4204.87 5601.55,4228.84C5632.6,4252.82 5652.44,4276.59 5661.09,4300.18L5665.81,4300.18L5665.81,3599.84L6168.07,3599.84L6168.07,5387.23L5665.81,5387.23ZM5676.42,4747.03C5676.42,4674.71 5660.5,4618.51 5628.67,4578.43C5596.83,4538.34 5553.8,4518.29 5499.56,4518.29C5445.33,4518.29 5401.12,4543.25 5366.92,4593.16C5332.73,4643.07 5315.64,4709.69 5315.64,4793.01C5315.64,4963.57 5374.59,5048.86 5492.49,5048.86C5548.3,5048.86 5592.9,5025.86 5626.31,4979.88C5659.72,4933.9 5676.42,4866.89 5676.42,4778.86L5676.42,4747.03Z" style="fill:url(#_Linear3);fill-rule:nonzero;"/>
            <path d="M6842.47,4926.24C6851.12,4978.11 6880.99,5018.79 6932.08,5048.27C6983.17,5077.74 7050.77,5092.48 7134.87,5092.48C7251.99,5092.48 7362.82,5070.08 7467.36,5025.28L7467.36,5343.61C7345.52,5392.34 7197.75,5416.71 7024.04,5416.71C6813.39,5416.71 6649.51,5362.87 6532.39,5255.18C6415.27,5147.5 6356.72,4999.34 6356.72,4810.69C6356.72,4681 6382.46,4566.63 6433.94,4467.6C6485.43,4368.56 6561.67,4290.94 6662.67,4234.74C6763.67,4178.54 6875.09,4150.44 6996.93,4150.44C7121.9,4150.44 7228.8,4174.81 7317.62,4223.54C7406.44,4272.27 7473.84,4340.65 7519.82,4428.69C7565.8,4516.72 7588.8,4619.69 7588.8,4737.59L7588.8,4926.24L6842.47,4926.24ZM7144.3,4663.31C7144.3,4524.19 7094.39,4454.63 6994.57,4454.63C6952.91,4454.63 6917.93,4473.69 6889.63,4511.81C6861.34,4549.93 6844.83,4600.43 6840.11,4663.31L7144.3,4663.31Z" style="fill:url(#_Linear4);fill-rule:nonzero;"/>
            <path d="M8308,5177.37C8308,5248.9 8282.85,5306.67 8232.54,5350.69C8182.24,5394.7 8112.67,5416.71 8023.85,5416.71C7942.9,5416.71 7876.67,5393.72 7825.19,5347.74C7773.7,5301.76 7747.96,5244.97 7747.96,5177.37C7747.96,5108.2 7773.31,5052.2 7824.01,5009.36C7874.71,4966.52 7942.9,4945.1 8028.57,4945.1C8111.89,4945.1 8179.29,4966.52 8230.77,5009.36C8282.26,5052.2 8308,5108.2 8308,5177.37Z" style="fill:url(#_Linear5);fill-rule:nonzero;"/>
        </g>
    </g>
    <g id="Build" transform="matrix(1,0,0,1,-200,-150)">
        <g id="Build-gray" serif:id="Build gray" transform="matrix(0.0394639,0,0,0.0394639,184.566,-17.7683)">
            <path d="M3714.67,10985C3683.81,11139.3 3605.38,11262.8 3483.22,11357.3C3339.94,11468.2 3137.28,11531.1 2871.06,11531.1L2099.98,11531.1C1997.6,11531.1 1914.61,11448.1 1914.61,11345.7L1914.61,9655C1914.61,9552.63 1997.6,9469.63 2099.98,9469.63L2818,9469.63C3412.97,9469.63 3676.6,9702.56 3676.6,10064.1C3676.6,10156.8 3653.88,10241.6 3609.41,10318.8C3589.53,10353.3 3565.07,10386.1 3535.66,10416.8C3581.98,10457.2 3620.24,10502.9 3650.88,10553.3C3676.18,10595 3695.22,10637.6 3708.17,10680.8L3708.17,10867C3708.17,10908.9 3710.33,10948.3 3714.67,10985ZM3544.28,10827C3544.28,10992.8 3486.12,11120.7 3369.79,11210.7C3253.46,11300.7 3087.22,11345.7 2871.06,11345.7L2099.98,11345.7L2099.98,9655L2818,9655C3266.82,9655 3491.23,9791.38 3491.23,10064.1C3491.23,10123.1 3477.08,10177.1 3448.78,10226.2C3420.49,10275.4 3377.45,10318.4 3319.68,10355.3C3261.91,10392.3 3198.44,10417.4 3129.27,10430.8L3129.27,10435.5C3209.44,10444.9 3281.36,10468.7 3345.03,10506.8C3408.7,10545 3457.82,10592.5 3492.41,10649.5C3526.99,10706.5 3544.28,10765.6 3544.28,10827ZM3003.11,10824.6C3003.11,10775.9 2985.43,10735.8 2950.05,10704.3C2914.68,10672.9 2867.92,10657.2 2809.75,10657.2L2609.32,10657.2L2609.32,11002.6L2779.1,11002.6C2848.27,11002.6 2902.89,10986.7 2942.98,10954.9C2983.07,10923 3003.11,10879.6 3003.11,10824.6ZM2950.05,10152.6C2950.05,10048 2867.92,9995.74 2703.64,9995.74L2609.32,9995.74L2609.32,10315.3L2756.7,10315.3C2813.29,10315.3 2859.66,10300.1 2895.82,10269.9C2931.98,10239.6 2950.05,10200.5 2950.05,10152.6Z" style="fill:rgb(238,238,238);"/>
            <path d="M3522.8,10711.4L3522.8,10138.4C3522.8,10036 3605.79,9953.03 3708.17,9953.03L4210.43,9953.03C4266.51,9953.03 4316.78,9977.94 4350.73,10017.3C4384.69,9977.94 4434.96,9953.03 4491.04,9953.03L4993.3,9953.03C5095.68,9953.03 5178.67,10036 5178.67,10138.4L5178.67,11345.7C5178.67,11448.1 5095.68,11531.1 4993.3,11531.1L4491.04,11531.1C4451.49,11531.1 4414.84,11518.7 4384.76,11497.6C4366.62,11506.9 4347.78,11515.3 4328.27,11523C4266.75,11547.1 4195.4,11560.6 4113.75,11560.6C3917.39,11560.6 3770.54,11490.5 3667.69,11363.1C3591.88,11269.2 3541.69,11139.7 3527.19,10971.5C3538.59,10927.1 3544.28,10878.9 3544.28,10827C3544.28,10787.5 3537.13,10749 3522.8,10711.4ZM4428.44,11232.3C4448.01,11277.2 4469.14,11315.3 4479.65,11333.4L4404.21,11258C4393.73,11268.5 4383.55,11277.7 4373.73,11285.6C4340.32,11312.3 4302.59,11333.9 4260.54,11350.4C4218.49,11366.9 4169.56,11375.2 4113.75,11375.2C3981.7,11375.2 3881.09,11332.4 3811.92,11246.7C3742.75,11161 3708.17,11034.5 3708.17,10867L3708.17,10138.4L4210.43,10138.4L4210.43,10829.3C4210.43,10948 4254.84,11007.3 4343.66,11007.3C4392.39,11007.3 4429.14,10991.2 4453.9,10959C4478.66,10926.8 4491.04,10881.2 4491.04,10822.2L4491.04,10138.4L4993.3,10138.4L4993.3,11345.7L4491.04,11345.7L4491.04,11159.4L4486.32,11159.4C4466.06,11187.3 4446.77,11211.6 4428.44,11232.3Z" style="fill:rgb(238,238,238);"/>
            <path d="M5082.34,10031.6C5060.98,10061.8 5048.45,10098.6 5048.45,10138.4L5048.45,11345.7C5048.45,11448.1 5131.45,11531.1 5233.82,11531.1L5736.09,11531.1C5838.47,11531.1 5921.46,11448.1 5921.46,11345.7L5921.46,10138.4C5921.46,10099.9 5909.7,10064.1 5889.57,10034.4C5930.22,9971.09 5950.93,9897.4 5950.93,9812.99C5950.93,9684.95 5902.2,9581.78 5806.9,9502.49C5725,9434.34 5618.75,9395.35 5484.96,9395.35C5349.4,9395.35 5242.9,9434.98 5161.94,9503.39C5068.32,9582.49 5020.16,9685.27 5020.16,9812.99C5020.16,9894.6 5040.72,9967.56 5082.34,10031.6ZM5233.82,11345.7L5233.82,10138.4L5736.09,10138.4L5736.09,11345.7L5233.82,11345.7ZM5765.56,9812.99C5765.56,9883.73 5739.82,9941.11 5688.34,9985.13C5636.85,10029.1 5569.06,10051.2 5484.96,10051.2C5403.21,10051.2 5336.2,10028.4 5283.93,9982.77C5231.66,9937.18 5205.53,9880.59 5205.53,9812.99C5205.53,9743.82 5230.88,9687.82 5281.57,9644.98C5332.27,9602.14 5400.07,9580.72 5484.96,9580.72C5569.06,9580.72 5636.85,9602.14 5688.34,9644.98C5739.82,9687.82 5765.56,9743.82 5765.56,9812.99Z" style="fill:rgb(238,238,238);"/>
            <path d="M5792.42,11345.7C5792.42,11448.1 5875.41,11531.1 5977.79,11531.1L6480.05,11531.1C6582.43,11531.1 6665.42,11448.1 6665.42,11345.7L6665.42,9558.32C6665.42,9455.95 6582.43,9372.95 6480.05,9372.95L5977.79,9372.95C5875.41,9372.95 5792.42,9455.95 5792.42,9558.32L5792.42,11345.7ZM5977.79,11345.7L5977.79,9558.32L6480.05,9558.32L6480.05,11345.7L5977.79,11345.7Z" style="fill:rgb(238,238,238);"/>
            <path d="M7342.84,9935.67C7302.94,9927.67 7260.99,9923.56 7216.94,9923.56C7074.85,9923.56 6946.81,9961.55 6832.49,10036.3C6720.26,10109.8 6632.27,10211.8 6570.38,10343.9C6513.27,10465.9 6483.33,10605.5 6483.33,10763.3C6483.33,10915.6 6508.86,11047.3 6556.56,11159.1C6610.76,11286.1 6693.35,11384.3 6802.85,11454.9C6910.56,11524.4 7034.57,11560.6 7175.68,11560.6C7259.89,11560.6 7345.34,11542.3 7431.56,11503.9C7459.7,11521.2 7492.79,11531.1 7528.2,11531.1L8030.47,11531.1C8132.85,11531.1 8215.84,11448.1 8215.84,11345.7L8215.84,9558.32C8215.84,9455.95 8132.85,9372.95 8030.47,9372.95L7528.2,9372.95C7425.83,9372.95 7342.84,9455.95 7342.84,9558.32L7342.84,9935.67ZM7573.27,11345.7L8030.47,11345.7L8030.47,9558.32L7528.2,9558.32L7528.2,10258.7L7523.49,10258.7C7514.84,10235.1 7494.99,10211.3 7463.95,10187.3C7432.9,10163.4 7396.35,10144.3 7354.3,10130.1C7312.25,10116 7266.46,10108.9 7216.94,10108.9C7112.4,10108.9 7018.08,10136.4 6933.98,10191.5C6849.87,10246.5 6784.63,10323.5 6738.26,10422.5C6691.88,10521.6 6668.7,10635.2 6668.7,10763.3C6668.7,10887.5 6688.15,10995.2 6727.06,11086.3C6765.97,11177.5 6824.72,11248.5 6903.32,11299.2C6981.92,11349.8 7072.71,11375.2 7175.68,11375.2C7238.56,11375.2 7302.23,11360.1 7366.68,11329.8C7389.57,11319.1 7410.92,11306.9 7430.71,11293.3L7520.97,11383.6C7514.4,11364.7 7496.52,11311.4 7482.73,11251.1C7497.49,11237 7511.07,11221.7 7523.49,11205.4L7528.2,11205.4L7528.2,11345.7L7552.07,11345.7C7541.83,11366.3 7533.53,11381.3 7529.99,11387.6L7532.84,11386.2L7573.27,11345.7ZM7538.82,10705.5C7538.82,10633.2 7522.9,10577 7491.07,10536.9C7459.23,10496.8 7416.2,10476.8 7361.96,10476.8C7307.73,10476.8 7263.51,10501.7 7229.32,10551.6C7195.13,10601.6 7178.03,10668.2 7178.03,10751.5C7178.03,10922.1 7236.99,11007.3 7354.89,11007.3C7410.69,11007.3 7455.3,10984.4 7488.71,10938.4C7522.11,10892.4 7538.82,10825.4 7538.82,10737.3L7538.82,10705.5Z" style="fill:rgb(238,238,238);"/>
            <path d="M9003.43,11135.9C9003.43,11007.8 8954.7,10904.6 8859.4,10825.4C8777.33,10757.1 8671.43,10718.2 8538.63,10718.2C8402.08,10718.2 8295.23,10758 8214.43,10826.3C8120.82,10905.4 8072.65,11008.1 8072.65,11135.9C8072.65,11258.2 8118.59,11361.3 8211.77,11444.5C8295.6,11519.4 8402.09,11560.6 8533.91,11560.6C8675.6,11560.6 8784.42,11518.9 8864.67,11448.7C8955.74,11369 9003.43,11265.3 9003.43,11135.9ZM8818.06,11135.9C8818.06,11207.4 8792.9,11265.2 8742.6,11309.2C8692.29,11353.2 8622.73,11375.2 8533.91,11375.2C8452.95,11375.2 8386.73,11352.2 8335.25,11306.2C8283.76,11260.2 8258.02,11203.5 8258.02,11135.9C8258.02,11066.7 8283.37,11010.7 8334.07,10967.8C8384.76,10925 8452.95,10903.6 8538.63,10903.6C8621.95,10903.6 8689.35,10925 8740.83,10967.8C8792.31,11010.7 8818.06,11066.7 8818.06,11135.9Z" style="fill:rgb(238,238,238);"/>
            <g transform="matrix(2414.64,0,0,2414.64,1933.74,11345.7)">
                <path d="M0.667,-0.215C0.667,-0.146 0.643,-0.093 0.595,-0.056C0.547,-0.019 0.478,-0 0.388,-0L0.069,-0L0.069,-0.7L0.366,-0.7C0.552,-0.7 0.645,-0.644 0.645,-0.531C0.645,-0.506 0.639,-0.484 0.627,-0.464C0.616,-0.443 0.598,-0.425 0.574,-0.41C0.55,-0.395 0.524,-0.384 0.495,-0.379L0.495,-0.377C0.528,-0.373 0.558,-0.363 0.584,-0.347C0.611,-0.332 0.631,-0.312 0.646,-0.288C0.66,-0.265 0.667,-0.24 0.667,-0.215ZM0.421,-0.494C0.421,-0.537 0.387,-0.559 0.319,-0.559L0.28,-0.559L0.28,-0.427L0.341,-0.427C0.364,-0.427 0.383,-0.433 0.398,-0.446C0.413,-0.458 0.421,-0.474 0.421,-0.494ZM0.443,-0.216C0.443,-0.236 0.436,-0.253 0.421,-0.266C0.406,-0.279 0.387,-0.285 0.363,-0.285L0.28,-0.285L0.28,-0.142L0.35,-0.142C0.379,-0.142 0.401,-0.149 0.418,-0.162C0.435,-0.175 0.443,-0.193 0.443,-0.216Z" style="fill:rgb(213,213,213);fill-rule:nonzero;"/>
            </g>
            <g transform="matrix(2414.64,0,0,2414.64,3602.06,11345.7)">
                <path d="M0.368,-0L0.368,-0.077L0.366,-0.077C0.349,-0.053 0.333,-0.036 0.32,-0.025C0.306,-0.014 0.29,-0.005 0.273,0.002C0.255,0.009 0.235,0.012 0.212,0.012C0.157,0.012 0.116,-0.006 0.087,-0.041C0.058,-0.076 0.044,-0.129 0.044,-0.198L0.044,-0.5L0.252,-0.5L0.252,-0.214C0.252,-0.165 0.27,-0.14 0.307,-0.14C0.327,-0.14 0.343,-0.147 0.353,-0.16C0.363,-0.174 0.368,-0.192 0.368,-0.217L0.368,-0.5L0.576,-0.5L0.576,-0L0.368,-0Z" style="fill:rgb(213,213,213);fill-rule:nonzero;"/>
            </g>
            <g transform="matrix(2414.64,0,0,2414.64,5113.56,11345.7)">
                <path d="M0.27,-0.635C0.27,-0.605 0.259,-0.582 0.238,-0.563C0.217,-0.545 0.189,-0.536 0.154,-0.536C0.12,-0.536 0.092,-0.546 0.071,-0.564C0.049,-0.583 0.038,-0.607 0.038,-0.635C0.038,-0.663 0.049,-0.687 0.07,-0.704C0.091,-0.722 0.119,-0.731 0.154,-0.731C0.189,-0.731 0.217,-0.722 0.238,-0.704C0.259,-0.687 0.27,-0.663 0.27,-0.635ZM0.05,-0L0.05,-0.5L0.258,-0.5L0.258,-0L0.05,-0Z" style="fill:rgb(213,213,213);fill-rule:nonzero;"/>
            </g>
            <g transform="matrix(2414.64,0,0,2414.64,5857.53,11345.7)">
                <rect x="0.05" y="-0.74" width="0.208" height="0.74" style="fill:rgb(213,213,213);fill-rule:nonzero;"/>
            </g>
            <g transform="matrix(2414.64,0,0,2414.64,6601.49,11345.7)">
                <path d="M0.384,-0L0.384,-0.058L0.382,-0.058C0.365,-0.036 0.344,-0.019 0.317,-0.007C0.29,0.006 0.264,0.012 0.238,0.012C0.195,0.012 0.158,0.002 0.125,-0.019C0.092,-0.04 0.068,-0.07 0.052,-0.107C0.036,-0.145 0.028,-0.19 0.028,-0.241C0.028,-0.294 0.037,-0.341 0.057,-0.382C0.076,-0.423 0.103,-0.455 0.138,-0.478C0.173,-0.501 0.212,-0.512 0.255,-0.512C0.275,-0.512 0.294,-0.509 0.312,-0.503C0.329,-0.498 0.344,-0.49 0.357,-0.48C0.37,-0.47 0.378,-0.46 0.382,-0.45L0.384,-0.45L0.384,-0.74L0.592,-0.74L0.592,-0L0.384,-0ZM0.388,-0.265C0.388,-0.295 0.382,-0.318 0.368,-0.335C0.355,-0.352 0.337,-0.36 0.315,-0.36C0.292,-0.36 0.274,-0.35 0.26,-0.329C0.246,-0.308 0.239,-0.281 0.239,-0.246C0.239,-0.175 0.263,-0.14 0.312,-0.14C0.335,-0.14 0.354,-0.15 0.367,-0.169C0.381,-0.188 0.388,-0.215 0.388,-0.252L0.388,-0.265Z" style="fill:rgb(213,213,213);fill-rule:nonzero;"/>
            </g>
            <g transform="matrix(2414.64,0,0,2414.64,8151.91,11345.7)">
                <path d="M0.276,-0.087C0.276,-0.057 0.265,-0.033 0.245,-0.015C0.224,0.003 0.195,0.012 0.158,0.012C0.125,0.012 0.097,0.003 0.076,-0.016C0.055,-0.035 0.044,-0.059 0.044,-0.087C0.044,-0.116 0.054,-0.139 0.075,-0.156C0.096,-0.174 0.125,-0.183 0.16,-0.183C0.195,-0.183 0.223,-0.174 0.244,-0.156C0.265,-0.139 0.276,-0.116 0.276,-0.087Z" style="fill:rgb(213,213,213);fill-rule:nonzero;"/>
            </g>
        </g>
        <g id="Build-colorful" serif:id="Build colorful" transform="matrix(0.0394639,0,0,0.0394639,184.566,-17.7683)">
            <path d="M3714.67,10985C3683.81,11139.3 3605.38,11262.8 3483.22,11357.3C3339.94,11468.2 3137.28,11531.1 2871.06,11531.1L2099.98,11531.1C1997.6,11531.1 1914.61,11448.1 1914.61,11345.7L1914.61,9655C1914.61,9552.63 1997.6,9469.63 2099.98,9469.63L2818,9469.63C3412.97,9469.63 3676.6,9702.56 3676.6,10064.1C3676.6,10156.8 3653.88,10241.6 3609.41,10318.8C3589.53,10353.3 3565.07,10386.1 3535.66,10416.8C3581.98,10457.2 3620.24,10502.9 3650.88,10553.3C3676.18,10595 3695.22,10637.6 3708.17,10680.8L3708.17,10867C3708.17,10908.9 3710.33,10948.3 3714.67,10985ZM3544.28,10827C3544.28,10992.8 3486.12,11120.7 3369.79,11210.7C3253.46,11300.7 3087.22,11345.7 2871.06,11345.7L2099.98,11345.7L2099.98,9655L2818,9655C3266.82,9655 3491.23,9791.38 3491.23,10064.1C3491.23,10123.1 3477.08,10177.1 3448.78,10226.2C3420.49,10275.4 3377.45,10318.4 3319.68,10355.3C3261.91,10392.3 3198.44,10417.4 3129.27,10430.8L3129.27,10435.5C3209.44,10444.9 3281.36,10468.7 3345.03,10506.8C3408.7,10545 3457.82,10592.5 3492.41,10649.5C3526.99,10706.5 3544.28,10765.6 3544.28,10827ZM3003.11,10824.6C3003.11,10775.9 2985.43,10735.8 2950.05,10704.3C2914.68,10672.9 2867.92,10657.2 2809.75,10657.2L2609.32,10657.2L2609.32,11002.6L2779.1,11002.6C2848.27,11002.6 2902.89,10986.7 2942.98,10954.9C2983.07,10923 3003.11,10879.6 3003.11,10824.6ZM2950.05,10152.6C2950.05,10048 2867.92,9995.74 2703.64,9995.74L2609.32,9995.74L2609.32,10315.3L2756.7,10315.3C2813.29,10315.3 2859.66,10300.1 2895.82,10269.9C2931.98,10239.6 2950.05,10200.5 2950.05,10152.6Z" style="fill:rgb(238,238,238);"/>
            <path d="M3522.8,10711.4L3522.8,10138.4C3522.8,10036 3605.79,9953.03 3708.17,9953.03L4210.43,9953.03C4266.51,9953.03 4316.78,9977.94 4350.73,10017.3C4384.69,9977.94 4434.96,9953.03 4491.04,9953.03L4993.3,9953.03C5095.68,9953.03 5178.67,10036 5178.67,10138.4L5178.67,11345.7C5178.67,11448.1 5095.68,11531.1 4993.3,11531.1L4491.04,11531.1C4451.49,11531.1 4414.84,11518.7 4384.76,11497.6C4366.62,11506.9 4347.78,11515.3 4328.27,11523C4266.75,11547.1 4195.4,11560.6 4113.75,11560.6C3917.39,11560.6 3770.54,11490.5 3667.69,11363.1C3591.88,11269.2 3541.69,11139.7 3527.19,10971.5C3538.59,10927.1 3544.28,10878.9 3544.28,10827C3544.28,10787.5 3537.13,10749 3522.8,10711.4ZM4428.44,11232.3C4448.01,11277.2 4469.14,11315.3 4479.65,11333.4L4404.21,11258C4393.73,11268.5 4383.55,11277.7 4373.73,11285.6C4340.32,11312.3 4302.59,11333.9 4260.54,11350.4C4218.49,11366.9 4169.56,11375.2 4113.75,11375.2C3981.7,11375.2 3881.09,11332.4 3811.92,11246.7C3742.75,11161 3708.17,11034.5 3708.17,10867L3708.17,10138.4L4210.43,10138.4L4210.43,10829.3C4210.43,10948 4254.84,11007.3 4343.66,11007.3C4392.39,11007.3 4429.14,10991.2 4453.9,10959C4478.66,10926.8 4491.04,10881.2 4491.04,10822.2L4491.04,10138.4L4993.3,10138.4L4993.3,11345.7L4491.04,11345.7L4491.04,11159.4L4486.32,11159.4C4466.06,11187.3 4446.77,11211.6 4428.44,11232.3Z" style="fill:rgb(238,238,238);"/>
            <path d="M5082.34,10031.6C5060.98,10061.8 5048.45,10098.6 5048.45,10138.4L5048.45,11345.7C5048.45,11448.1 5131.45,11531.1 5233.82,11531.1L5736.09,11531.1C5838.47,11531.1 5921.46,11448.1 5921.46,11345.7L5921.46,10138.4C5921.46,10099.9 5909.7,10064.1 5889.57,10034.4C5930.22,9971.09 5950.93,9897.4 5950.93,9812.99C5950.93,9684.95 5902.2,9581.78 5806.9,9502.49C5725,9434.34 5618.75,9395.35 5484.96,9395.35C5349.4,9395.35 5242.9,9434.98 5161.94,9503.39C5068.32,9582.49 5020.16,9685.27 5020.16,9812.99C5020.16,9894.6 5040.72,9967.56 5082.34,10031.6ZM5233.82,11345.7L5233.82,10138.4L5736.09,10138.4L5736.09,11345.7L5233.82,11345.7ZM5765.56,9812.99C5765.56,9883.73 5739.82,9941.11 5688.34,9985.13C5636.85,10029.1 5569.06,10051.2 5484.96,10051.2C5403.21,10051.2 5336.2,10028.4 5283.93,9982.77C5231.66,9937.18 5205.53,9880.59 5205.53,9812.99C5205.53,9743.82 5230.88,9687.82 5281.57,9644.98C5332.27,9602.14 5400.07,9580.72 5484.96,9580.72C5569.06,9580.72 5636.85,9602.14 5688.34,9644.98C5739.82,9687.82 5765.56,9743.82 5765.56,9812.99Z" style="fill:rgb(238,238,238);"/>
            <path d="M5792.42,11345.7C5792.42,11448.1 5875.41,11531.1 5977.79,11531.1L6480.05,11531.1C6582.43,11531.1 6665.42,11448.1 6665.42,11345.7L6665.42,9558.32C6665.42,9455.95 6582.43,9372.95 6480.05,9372.95L5977.79,9372.95C5875.41,9372.95 5792.42,9455.95 5792.42,9558.32L5792.42,11345.7ZM5977.79,11345.7L5977.79,9558.32L6480.05,9558.32L6480.05,11345.7L5977.79,11345.7Z" style="fill:rgb(238,238,238);"/>
            <path d="M7342.84,9935.67C7302.94,9927.67 7260.99,9923.56 7216.94,9923.56C7074.85,9923.56 6946.81,9961.55 6832.49,10036.3C6720.26,10109.8 6632.27,10211.8 6570.38,10343.9C6513.27,10465.9 6483.33,10605.5 6483.33,10763.3C6483.33,10915.6 6508.86,11047.3 6556.56,11159.1C6610.76,11286.1 6693.35,11384.3 6802.85,11454.9C6910.56,11524.4 7034.57,11560.6 7175.68,11560.6C7259.89,11560.6 7345.34,11542.3 7431.56,11503.9C7459.7,11521.2 7492.79,11531.1 7528.2,11531.1L8030.47,11531.1C8132.85,11531.1 8215.84,11448.1 8215.84,11345.7L8215.84,9558.32C8215.84,9455.95 8132.85,9372.95 8030.47,9372.95L7528.2,9372.95C7425.83,9372.95 7342.84,9455.95 7342.84,9558.32L7342.84,9935.67ZM7573.27,11345.7L8030.47,11345.7L8030.47,9558.32L7528.2,9558.32L7528.2,10258.7L7523.49,10258.7C7514.84,10235.1 7494.99,10211.3 7463.95,10187.3C7432.9,10163.4 7396.35,10144.3 7354.3,10130.1C7312.25,10116 7266.46,10108.9 7216.94,10108.9C7112.4,10108.9 7018.08,10136.4 6933.98,10191.5C6849.87,10246.5 6784.63,10323.5 6738.26,10422.5C6691.88,10521.6 6668.7,10635.2 6668.7,10763.3C6668.7,10887.5 6688.15,10995.2 6727.06,11086.3C6765.97,11177.5 6824.72,11248.5 6903.32,11299.2C6981.92,11349.8 7072.71,11375.2 7175.68,11375.2C7238.56,11375.2 7302.23,11360.1 7366.68,11329.8C7389.57,11319.1 7410.92,11306.9 7430.71,11293.3L7520.97,11383.6C7514.4,11364.7 7496.52,11311.4 7482.73,11251.1C7497.49,11237 7511.07,11221.7 7523.49,11205.4L7528.2,11205.4L7528.2,11345.7L7552.07,11345.7C7541.83,11366.3 7533.53,11381.3 7529.99,11387.6L7532.84,11386.2L7573.27,11345.7ZM7538.82,10705.5C7538.82,10633.2 7522.9,10577 7491.07,10536.9C7459.23,10496.8 7416.2,10476.8 7361.96,10476.8C7307.73,10476.8 7263.51,10501.7 7229.32,10551.6C7195.13,10601.6 7178.03,10668.2 7178.03,10751.5C7178.03,10922.1 7236.99,11007.3 7354.89,11007.3C7410.69,11007.3 7455.3,10984.4 7488.71,10938.4C7522.11,10892.4 7538.82,10825.4 7538.82,10737.3L7538.82,10705.5Z" style="fill:rgb(238,238,238);"/>
            <path d="M9003.43,11135.9C9003.43,11007.8 8954.7,10904.6 8859.4,10825.4C8777.33,10757.1 8671.43,10718.2 8538.63,10718.2C8402.08,10718.2 8295.23,10758 8214.43,10826.3C8120.82,10905.4 8072.65,11008.1 8072.65,11135.9C8072.65,11258.2 8118.59,11361.3 8211.77,11444.5C8295.6,11519.4 8402.09,11560.6 8533.91,11560.6C8675.6,11560.6 8784.42,11518.9 8864.67,11448.7C8955.74,11369 9003.43,11265.3 9003.43,11135.9ZM8818.06,11135.9C8818.06,11207.4 8792.9,11265.2 8742.6,11309.2C8692.29,11353.2 8622.73,11375.2 8533.91,11375.2C8452.95,11375.2 8386.73,11352.2 8335.25,11306.2C8283.76,11260.2 8258.02,11203.5 8258.02,11135.9C8258.02,11066.7 8283.37,11010.7 8334.07,10967.8C8384.76,10925 8452.95,10903.6 8538.63,10903.6C8621.95,10903.6 8689.35,10925 8740.83,10967.8C8792.31,11010.7 8818.06,11066.7 8818.06,11135.9Z" style="fill:rgb(238,238,238);"/>
            <path d="M3544.28,10827C3544.28,10992.8 3486.12,11120.7 3369.79,11210.7C3253.46,11300.7 3087.22,11345.7 2871.06,11345.7L2099.98,11345.7L2099.98,9655L2818,9655C3266.82,9655 3491.23,9791.38 3491.23,10064.1C3491.23,10123.1 3477.08,10177.1 3448.78,10226.2C3420.49,10275.4 3377.45,10318.4 3319.68,10355.3C3261.91,10392.3 3198.44,10417.4 3129.27,10430.8L3129.27,10435.5C3209.44,10444.9 3281.36,10468.7 3345.03,10506.8C3408.7,10545 3457.82,10592.5 3492.41,10649.5C3526.99,10706.5 3544.28,10765.6 3544.28,10827ZM2950.05,10152.6C2950.05,10048 2867.92,9995.74 2703.64,9995.74L2609.32,9995.74L2609.32,10315.3L2756.7,10315.3C2813.29,10315.3 2859.66,10300.1 2895.82,10269.9C2931.98,10239.6 2950.05,10200.5 2950.05,10152.6ZM3003.11,10824.6C3003.11,10775.9 2985.43,10735.8 2950.05,10704.3C2914.68,10672.9 2867.92,10657.2 2809.75,10657.2L2609.32,10657.2L2609.32,11002.6L2779.1,11002.6C2848.27,11002.6 2902.89,10986.7 2942.98,10954.9C2983.07,10923 3003.11,10879.6 3003.11,10824.6Z" style="fill:url(#_Linear6);fill-rule:nonzero;"/>
            <path d="M4491.04,11345.7L4491.04,11159.4L4486.32,11159.4C4444.66,11216.8 4407.13,11258.9 4373.73,11285.6C4340.32,11312.3 4302.59,11333.9 4260.54,11350.4C4218.49,11366.9 4169.56,11375.2 4113.75,11375.2C3981.7,11375.2 3881.09,11332.4 3811.92,11246.7C3742.75,11161 3708.17,11034.5 3708.17,10867L3708.17,10138.4L4210.43,10138.4L4210.43,10829.3C4210.43,10948 4254.84,11007.3 4343.66,11007.3C4392.39,11007.3 4429.14,10991.2 4453.9,10959C4478.66,10926.8 4491.04,10881.2 4491.04,10822.2L4491.04,10138.4L4993.3,10138.4L4993.3,11345.7L4491.04,11345.7Z" style="fill:url(#_Linear7);fill-rule:nonzero;"/>
            <path d="M5765.56,9812.99C5765.56,9883.73 5739.82,9941.11 5688.34,9985.13C5636.85,10029.1 5569.06,10051.2 5484.96,10051.2C5403.21,10051.2 5336.2,10028.4 5283.93,9982.77C5231.66,9937.18 5205.53,9880.59 5205.53,9812.99C5205.53,9743.82 5230.88,9687.82 5281.57,9644.98C5332.27,9602.14 5400.07,9580.72 5484.96,9580.72C5569.06,9580.72 5636.85,9602.14 5688.34,9644.98C5739.82,9687.82 5765.56,9743.82 5765.56,9812.99ZM5233.82,11345.7L5233.82,10138.4L5736.09,10138.4L5736.09,11345.7L5233.82,11345.7Z" style="fill:url(#_Linear8);fill-rule:nonzero;"/>
            <rect x="5977.79" y="9558.32" width="502.264" height="1787.4" style="fill:url(#_Linear9);fill-rule:nonzero;"/>
            <path d="M7528.2,11345.7L7528.2,11205.4L7523.49,11205.4C7483.4,11258.1 7431.13,11299.5 7366.68,11329.8C7302.23,11360.1 7238.56,11375.2 7175.68,11375.2C7072.71,11375.2 6981.92,11349.8 6903.32,11299.2C6824.72,11248.5 6765.97,11177.5 6727.06,11086.3C6688.15,10995.2 6668.7,10887.5 6668.7,10763.3C6668.7,10635.2 6691.88,10521.6 6738.26,10422.5C6784.63,10323.5 6849.87,10246.5 6933.98,10191.5C7018.08,10136.4 7112.4,10108.9 7216.94,10108.9C7266.46,10108.9 7312.25,10116 7354.3,10130.1C7396.35,10144.3 7432.9,10163.4 7463.95,10187.3C7494.99,10211.3 7514.84,10235.1 7523.49,10258.7L7528.2,10258.7L7528.2,9558.32L8030.47,9558.32L8030.47,11345.7L7528.2,11345.7ZM7538.82,10705.5C7538.82,10633.2 7522.9,10577 7491.07,10536.9C7459.23,10496.8 7416.2,10476.8 7361.96,10476.8C7307.73,10476.8 7263.51,10501.7 7229.32,10551.6C7195.13,10601.6 7178.03,10668.2 7178.03,10751.5C7178.03,10922.1 7236.99,11007.3 7354.89,11007.3C7410.69,11007.3 7455.3,10984.4 7488.71,10938.4C7522.11,10892.4 7538.82,10825.4 7538.82,10737.3L7538.82,10705.5Z" style="fill:url(#_Linear10);fill-rule:nonzero;"/>
            <path d="M8818.06,11135.9C8818.06,11207.4 8792.9,11265.2 8742.6,11309.2C8692.29,11353.2 8622.73,11375.2 8533.91,11375.2C8452.95,11375.2 8386.73,11352.2 8335.25,11306.2C8283.76,11260.2 8258.02,11203.5 8258.02,11135.9C8258.02,11066.7 8283.37,11010.7 8334.07,10967.8C8384.76,10925 8452.95,10903.6 8538.63,10903.6C8621.95,10903.6 8689.35,10925 8740.83,10967.8C8792.31,11010.7 8818.06,11066.7 8818.06,11135.9Z" style="fill:url(#_Linear11);fill-rule:nonzero;"/>
        </g>
    </g>
    <g id="Reuse" transform="matrix(1,0,0,1,-200,-150)">
        <g id="Reuse-gray" serif:id="Reuse gray" transform="matrix(0.159615,0,0,0.159615,-151.939,-552.143)">
            <path d="M2694.43,5553.69L2696.96,5560.98C2703.38,5579.52 2720.84,5591.96 2740.47,5591.96L2883.14,5591.96C2898.32,5591.96 2912.53,5584.47 2921.11,5571.95C2929.7,5559.43 2931.56,5543.49 2926.09,5529.32L2884.77,5422.36C2875.36,5398.05 2864.6,5378.64 2853.09,5363.78C2860.81,5357.52 2867.7,5350.7 2873.8,5343.4C2896.79,5315.87 2908.97,5281.97 2908.97,5241.23C2908.97,5185.61 2887.46,5144.51 2846.94,5116.7C2813.2,5093.53 2761.44,5079.76 2690.66,5079.76C2690.66,5079.76 2522.5,5079.76 2522.5,5079.76C2497.07,5079.76 2476.45,5100.37 2476.45,5125.8L2476.45,5545.92C2476.45,5571.34 2497.07,5591.96 2522.5,5591.96L2649.06,5591.96C2671.84,5591.96 2690.75,5575.42 2694.43,5553.69ZM2740.47,5545.92L2709.12,5455.39C2703.06,5437.62 2695.2,5423.65 2685.53,5413.49C2675.87,5403.34 2665.37,5398.26 2654.04,5398.26L2649.06,5398.26L2649.06,5545.92L2522.5,5545.92L2522.5,5125.8L2690.66,5125.8C2749.45,5125.8 2792.86,5135.42 2820.89,5154.66C2848.91,5173.9 2862.93,5202.75 2862.93,5241.23C2862.93,5270.14 2854.77,5294.35 2838.46,5313.89C2822.15,5333.42 2797.89,5347.58 2765.66,5356.37L2765.66,5357.54C2783.43,5363.01 2798.23,5371.89 2810.05,5384.2C2821.86,5396.5 2832.46,5414.76 2841.83,5438.98L2883.14,5545.92L2740.47,5545.92ZM2728.45,5259.1C2728.45,5245.04 2724.16,5233.9 2715.56,5225.7C2706.97,5217.5 2693.49,5213.4 2675.13,5213.4L2649.06,5213.4L2649.06,5309.49L2671.91,5309.49C2688.9,5309.49 2702.57,5304.7 2712.93,5295.14C2723.28,5285.57 2728.45,5273.55 2728.45,5259.1Z" style="fill:rgb(238,238,238);"/>
            <path d="M3254.12,5452.68C3248.86,5462.76 3239.97,5470.64 3229.18,5474.6L3229.18,5535.08C3229.18,5553.9 3217.72,5570.83 3200.24,5577.82C3165.25,5591.82 3122.88,5599.28 3072.99,5599.28C3007.04,5599.28 2956.32,5580.71 2919.65,5547C2881.49,5511.9 2861.12,5464.13 2861.12,5402.65C2861.12,5362.37 2869.51,5326.93 2885.5,5296.16C2902.47,5263.52 2927.51,5237.83 2960.8,5219.31C2992.68,5201.57 3027.8,5192.55 3066.25,5192.55C3105.99,5192.55 3139.84,5200.9 3168.08,5216.39C3198.37,5233.01 3221.31,5256.39 3236.99,5286.42C3243.82,5299.49 3249.15,5313.58 3252.87,5328.71L3252.87,5426.97C3252.87,5436.02 3253.27,5444.59 3254.12,5452.68ZM3027.87,5431.37C3030.02,5444.26 3037.44,5454.36 3050.13,5461.69C3062.83,5469.01 3079.62,5472.67 3100.52,5472.67C3129.62,5472.67 3157.16,5467.11 3183.14,5455.98L3183.14,5535.08C3152.87,5547.19 3116.15,5553.24 3072.99,5553.24C3020.64,5553.24 2979.92,5539.86 2950.82,5513.1C2921.72,5486.35 2907.16,5449.53 2907.16,5402.65C2907.16,5370.43 2913.56,5342.01 2926.35,5317.4C2939.15,5292.79 2958.09,5273.5 2983.19,5259.54C3008.29,5245.57 3035.97,5238.59 3066.25,5238.59C3097.3,5238.59 3123.86,5244.65 3145.93,5256.76C3168,5268.87 3184.75,5285.86 3196.18,5307.73C3207.6,5329.61 3213.32,5355.19 3213.32,5384.49L3213.32,5431.37L3027.87,5431.37ZM3102.87,5366.03C3102.87,5331.46 3090.47,5314.18 3065.66,5314.18C3055.31,5314.18 3046.62,5318.91 3039.59,5328.39C3032.55,5337.86 3028.45,5350.41 3027.28,5366.03L3102.87,5366.03ZM3064.48,5360.08L3063.66,5359.2L3063.18,5359.68L3063.72,5359.9L3064.48,5360.08Z" style="fill:rgb(238,238,238);"/>
            <path d="M3206.83,5334.66L3206.83,5245.92C3206.83,5220.49 3227.44,5199.88 3252.87,5199.88L3377.67,5199.88C3391.61,5199.88 3404.1,5206.07 3412.53,5215.86C3420.97,5206.07 3433.46,5199.88 3447.4,5199.88L3572.2,5199.88C3597.63,5199.88 3618.24,5220.49 3618.24,5245.92L3618.24,5545.92C3618.24,5571.34 3597.63,5591.96 3572.2,5591.96L3447.4,5591.96C3437.57,5591.96 3428.46,5588.88 3420.99,5583.62C3416.48,5585.94 3411.8,5588.04 3406.95,5589.95C3391.66,5595.95 3373.93,5599.28 3353.65,5599.28C3304.86,5599.28 3268.38,5581.88 3242.83,5550.23C3220.87,5523.03 3207.56,5483.78 3206.86,5431.37L3213.32,5431.37L3213.32,5384.49C3213.32,5366.48 3211.16,5349.86 3206.83,5334.66ZM3436.41,5512.36C3439.8,5526.75 3444.02,5539.34 3445.6,5543.87L3425.83,5524.1C3423.23,5526.73 3420.69,5529.02 3418.25,5530.98C3409.95,5537.62 3400.57,5542.99 3390.12,5547.09C3379.67,5551.19 3367.52,5553.24 3353.65,5553.24C3320.84,5553.24 3295.84,5542.6 3278.65,5521.31C3261.46,5500.02 3252.87,5468.57 3252.87,5426.97L3252.87,5245.92L3377.67,5245.92L3377.67,5417.6C3377.67,5447.09 3388.71,5461.83 3410.78,5461.83C3422.89,5461.83 3432.02,5457.83 3438.17,5449.82C3444.32,5441.82 3447.4,5430.49 3447.4,5415.84L3447.4,5245.92L3572.2,5245.92L3572.2,5545.92L3447.4,5545.92L3447.4,5499.63L3446.23,5499.63C3442.85,5504.28 3439.58,5508.53 3436.41,5512.36Z" style="fill:rgb(238,238,238);"/>
            <path d="M3920.45,5467.87C3915.51,5507.69 3896.37,5539.15 3863.82,5562.61C3831.4,5585.98 3786.63,5599.28 3728.65,5599.28C3713.48,5599.28 3694.72,5597.83 3672.41,5594.75C3649.53,5591.59 3630.9,5587.63 3616.48,5583.12C3597.26,5577.12 3584.17,5559.32 3584.17,5539.18L3584.17,5451.58C3584.17,5435.99 3592.05,5421.47 3605.12,5412.98L3605.25,5412.9C3591.62,5393.01 3584.17,5368.64 3584.17,5339.37C3584.17,5292.62 3602.9,5255.72 3640.1,5228.53C3671.36,5205.67 3714.83,5192.55 3771.42,5192.55C3801.23,5192.55 3832.84,5196.78 3866.21,5205.46C3886.5,5210.73 3900.67,5229.05 3900.67,5250.02L3900.67,5334.1C3900.67,5344.48 3897.17,5354.4 3890.95,5362.36C3898.2,5370.33 3904.24,5379.06 3908.97,5388.58C3908.67,5393.19 3908.53,5397.88 3908.53,5402.65C3908.53,5427.14 3912.5,5448.89 3920.45,5467.87ZM3875.72,5446.31C3875.72,5480.29 3862.78,5506.61 3836.9,5525.26C3811.02,5543.91 3774.94,5553.24 3728.65,5553.24C3715.17,5553.24 3698.52,5551.87 3678.7,5549.14C3658.87,5546.4 3642.71,5543.08 3630.21,5539.18L3630.21,5451.58C3667.12,5467.99 3697.99,5476.19 3722.79,5476.19C3747.2,5476.19 3759.41,5469.84 3759.41,5457.15C3759.41,5451.87 3756.58,5447.53 3750.91,5444.11C3745.25,5440.69 3730.41,5434.98 3706.38,5426.97C3679.82,5418.57 3660.49,5407.44 3648.38,5393.57C3636.27,5379.7 3630.21,5361.64 3630.21,5339.37C3630.21,5308.32 3642.57,5283.76 3667.27,5265.69C3691.98,5247.62 3726.7,5238.59 3771.42,5238.59C3797.59,5238.59 3825.33,5242.4 3854.62,5250.02L3854.62,5334.1C3842.32,5328.83 3828.84,5324.43 3814.2,5320.92C3799.55,5317.4 3787.24,5315.64 3777.28,5315.64C3769.08,5315.64 3762.53,5317.01 3757.65,5319.74C3752.77,5322.48 3750.33,5326.29 3750.33,5331.17C3750.33,5336.83 3752.97,5341.42 3758.24,5344.94C3763.51,5348.45 3774.06,5352.65 3789.88,5357.54C3820.54,5366.52 3842.52,5378.05 3855.8,5392.11C3869.08,5406.17 3875.72,5424.24 3875.72,5446.31Z" style="fill:rgb(238,238,238);"/>
            <path d="M3862.52,5400.38C3862.81,5361.03 3871.18,5326.35 3886.87,5296.16C3903.84,5263.52 3928.88,5237.83 3962.17,5219.31C3994.05,5201.57 4029.17,5192.55 4067.61,5192.55C4107.35,5192.55 4141.2,5200.9 4169.45,5216.39C4199.74,5233.01 4222.67,5256.39 4238.36,5286.42C4252.97,5314.4 4260.73,5347.02 4260.73,5384.49L4260.73,5431.37C4260.73,5451.22 4248.16,5468.13 4230.55,5474.6L4230.55,5535.08C4230.55,5553.9 4219.09,5570.83 4201.61,5577.82C4166.61,5591.82 4124.25,5599.28 4074.35,5599.28C4008.41,5599.28 3957.68,5580.71 3921.02,5547C3898.71,5526.48 3882.48,5501.63 3872.86,5472.24C3874.77,5464.16 3875.72,5455.51 3875.72,5446.31C3875.72,5428.34 3871.32,5413.03 3862.52,5400.38ZM4029.24,5431.37C4031.38,5444.26 4038.81,5454.36 4051.5,5461.69C4064.2,5469.01 4080.99,5472.67 4101.89,5472.67C4130.99,5472.67 4158.53,5467.11 4184.51,5455.98L4184.51,5535.08C4154.23,5547.19 4117.52,5553.24 4074.35,5553.24C4022.01,5553.24 3981.29,5539.86 3952.18,5513.1C3923.08,5486.35 3908.53,5449.53 3908.53,5402.65C3908.53,5370.43 3914.93,5342.01 3927.72,5317.4C3940.51,5292.79 3959.46,5273.5 3984.56,5259.54C4009.65,5245.57 4037.34,5238.59 4067.61,5238.59C4098.67,5238.59 4125.23,5244.65 4147.3,5256.76C4169.37,5268.87 4186.12,5285.86 4197.55,5307.73C4208.97,5329.61 4214.68,5355.19 4214.68,5384.49L4214.68,5431.37L4029.24,5431.37ZM4104.23,5366.03C4104.23,5331.46 4091.83,5314.18 4067.03,5314.18C4056.68,5314.18 4047.99,5318.91 4040.95,5328.39C4033.92,5337.86 4029.82,5350.41 4028.65,5366.03L4104.23,5366.03ZM4065.85,5360.08L4065.03,5359.2L4064.54,5359.68L4065.09,5359.9L4065.85,5360.08Z" style="fill:rgb(238,238,238);"/>
            <path d="M4439.44,5493.77C4439.44,5461.96 4427.33,5436.33 4403.65,5416.63C4383.27,5399.66 4356.95,5390.01 4323.96,5390.01C4290.04,5390.01 4263.49,5399.89 4243.42,5416.85C4220.16,5436.5 4208.19,5462.04 4208.19,5493.77C4208.19,5524.16 4219.61,5549.77 4242.76,5570.44C4263.58,5589.04 4290.04,5599.28 4322.79,5599.28C4357.99,5599.28 4385.03,5588.93 4404.96,5571.48C4427.59,5551.69 4439.44,5525.94 4439.44,5493.77ZM4393.4,5493.77C4393.4,5511.54 4387.15,5525.9 4374.65,5536.83C4362.15,5547.77 4344.86,5553.24 4322.79,5553.24C4302.67,5553.24 4286.22,5547.53 4273.42,5536.1C4260.63,5524.68 4254.23,5510.57 4254.23,5493.77C4254.23,5476.58 4260.53,5462.66 4273.13,5452.02C4285.73,5441.38 4302.67,5436.05 4323.96,5436.05C4344.66,5436.05 4361.41,5441.38 4374.2,5452.02C4387,5462.66 4393.4,5476.58 4393.4,5493.77Z" style="fill:rgb(238,238,238);"/>
            <g transform="matrix(600,0,0,600,2481.19,5545.92)">
                <path d="M0.432,-0L0.38,-0.151C0.37,-0.181 0.357,-0.204 0.341,-0.221C0.324,-0.238 0.307,-0.246 0.288,-0.246L0.28,-0.246L0.28,-0L0.069,-0L0.069,-0.7L0.349,-0.7C0.447,-0.7 0.519,-0.684 0.566,-0.652C0.613,-0.62 0.636,-0.572 0.636,-0.508C0.636,-0.46 0.623,-0.419 0.595,-0.387C0.568,-0.354 0.528,-0.331 0.474,-0.316L0.474,-0.314C0.504,-0.305 0.528,-0.29 0.548,-0.27C0.568,-0.249 0.585,-0.219 0.601,-0.178L0.67,-0L0.432,-0ZM0.412,-0.478C0.412,-0.501 0.405,-0.52 0.391,-0.534C0.376,-0.547 0.354,-0.554 0.323,-0.554L0.28,-0.554L0.28,-0.394L0.318,-0.394C0.346,-0.394 0.369,-0.402 0.386,-0.418C0.403,-0.434 0.412,-0.454 0.412,-0.478Z" style="fill:rgb(213,213,213);fill-rule:nonzero;"/>
            </g>
            <g transform="matrix(600,0,0,600,2890.47,5545.92)">
                <path d="M0.229,-0.191C0.233,-0.169 0.245,-0.153 0.266,-0.14C0.287,-0.128 0.315,-0.122 0.35,-0.122C0.399,-0.122 0.444,-0.131 0.488,-0.15L0.488,-0.018C0.437,0.002 0.376,0.012 0.304,0.012C0.217,0.012 0.149,-0.01 0.101,-0.055C0.052,-0.099 0.028,-0.161 0.028,-0.239C0.028,-0.292 0.038,-0.34 0.06,-0.381C0.081,-0.422 0.113,-0.454 0.155,-0.477C0.196,-0.501 0.243,-0.512 0.293,-0.512C0.345,-0.512 0.389,-0.502 0.426,-0.482C0.463,-0.462 0.49,-0.433 0.51,-0.397C0.529,-0.361 0.538,-0.318 0.538,-0.269L0.538,-0.191L0.229,-0.191ZM0.354,-0.3C0.354,-0.357 0.333,-0.386 0.292,-0.386C0.275,-0.386 0.26,-0.378 0.249,-0.363C0.237,-0.347 0.23,-0.326 0.228,-0.3L0.354,-0.3Z" style="fill:rgb(213,213,213);fill-rule:nonzero;"/>
            </g>
            <g transform="matrix(600,0,0,600,3226.5,5545.92)">
                <path d="M0.368,-0L0.368,-0.077L0.366,-0.077C0.349,-0.053 0.333,-0.036 0.32,-0.025C0.306,-0.014 0.29,-0.005 0.273,0.002C0.255,0.009 0.235,0.012 0.212,0.012C0.157,0.012 0.116,-0.006 0.087,-0.041C0.058,-0.076 0.044,-0.129 0.044,-0.198L0.044,-0.5L0.252,-0.5L0.252,-0.214C0.252,-0.165 0.27,-0.14 0.307,-0.14C0.327,-0.14 0.343,-0.147 0.353,-0.16C0.363,-0.174 0.368,-0.192 0.368,-0.217L0.368,-0.5L0.576,-0.5L0.576,-0L0.368,-0Z" style="fill:rgb(213,213,213);fill-rule:nonzero;"/>
            </g>
            <g transform="matrix(600,0,0,600,3602.09,5545.92)">
                <path d="M0.456,-0.166C0.456,-0.109 0.434,-0.066 0.391,-0.034C0.348,-0.003 0.288,0.012 0.211,0.012C0.188,0.012 0.161,0.01 0.128,0.005C0.095,0.001 0.068,-0.005 0.047,-0.011L0.047,-0.157C0.108,-0.13 0.16,-0.116 0.201,-0.116C0.242,-0.116 0.262,-0.127 0.262,-0.148C0.262,-0.157 0.257,-0.164 0.248,-0.17C0.239,-0.175 0.214,-0.185 0.174,-0.198C0.13,-0.212 0.097,-0.231 0.077,-0.254C0.057,-0.277 0.047,-0.307 0.047,-0.344C0.047,-0.396 0.067,-0.437 0.109,-0.467C0.15,-0.497 0.208,-0.512 0.282,-0.512C0.326,-0.512 0.372,-0.506 0.421,-0.493L0.421,-0.353C0.4,-0.362 0.378,-0.369 0.354,-0.375C0.329,-0.381 0.309,-0.384 0.292,-0.384C0.278,-0.384 0.267,-0.382 0.259,-0.377C0.251,-0.372 0.247,-0.366 0.247,-0.358C0.247,-0.348 0.251,-0.341 0.26,-0.335C0.269,-0.329 0.287,-0.322 0.313,-0.314C0.364,-0.299 0.401,-0.28 0.423,-0.256C0.445,-0.233 0.456,-0.203 0.456,-0.166Z" style="fill:rgb(213,213,213);fill-rule:nonzero;"/>
            </g>
            <g transform="matrix(600,0,0,600,3891.83,5545.92)">
                <path d="M0.229,-0.191C0.233,-0.169 0.245,-0.153 0.266,-0.14C0.287,-0.128 0.315,-0.122 0.35,-0.122C0.399,-0.122 0.444,-0.131 0.488,-0.15L0.488,-0.018C0.437,0.002 0.376,0.012 0.304,0.012C0.217,0.012 0.149,-0.01 0.101,-0.055C0.052,-0.099 0.028,-0.161 0.028,-0.239C0.028,-0.292 0.038,-0.34 0.06,-0.381C0.081,-0.422 0.113,-0.454 0.155,-0.477C0.196,-0.501 0.243,-0.512 0.293,-0.512C0.345,-0.512 0.389,-0.502 0.426,-0.482C0.463,-0.462 0.49,-0.433 0.51,-0.397C0.529,-0.361 0.538,-0.318 0.538,-0.269L0.538,-0.191L0.229,-0.191ZM0.354,-0.3C0.354,-0.357 0.333,-0.386 0.292,-0.386C0.275,-0.386 0.26,-0.378 0.249,-0.363C0.237,-0.347 0.23,-0.326 0.228,-0.3L0.354,-0.3Z" style="fill:rgb(213,213,213);fill-rule:nonzero;"/>
            </g>
            <g transform="matrix(600,0,0,600,4227.87,5545.92)">
                <path d="M0.276,-0.087C0.276,-0.057 0.265,-0.033 0.245,-0.015C0.224,0.003 0.195,0.012 0.158,0.012C0.125,0.012 0.097,0.003 0.076,-0.016C0.055,-0.035 0.044,-0.059 0.044,-0.087C0.044,-0.116 0.054,-0.139 0.075,-0.156C0.096,-0.174 0.125,-0.183 0.16,-0.183C0.195,-0.183 0.223,-0.174 0.244,-0.156C0.265,-0.139 0.276,-0.116 0.276,-0.087Z" style="fill:rgb(213,213,213);fill-rule:nonzero;"/>
            </g>
        </g>
        <g id="Reuse-colorful" serif:id="Reuse colorful" transform="matrix(0.159615,0,0,0.159615,-151.939,-552.143)">
            <path d="M2694.43,5553.69L2696.96,5560.98C2703.38,5579.52 2720.84,5591.96 2740.47,5591.96L2883.14,5591.96C2898.32,5591.96 2912.53,5584.47 2921.11,5571.95C2929.7,5559.43 2931.56,5543.49 2926.09,5529.32L2884.77,5422.36C2875.36,5398.05 2864.6,5378.64 2853.09,5363.78C2860.81,5357.52 2867.7,5350.7 2873.8,5343.4C2896.79,5315.87 2908.97,5281.97 2908.97,5241.23C2908.97,5185.61 2887.46,5144.51 2846.94,5116.7C2813.2,5093.53 2761.44,5079.76 2690.66,5079.76C2690.66,5079.76 2522.5,5079.76 2522.5,5079.76C2497.07,5079.76 2476.45,5100.37 2476.45,5125.8L2476.45,5545.92C2476.45,5571.34 2497.07,5591.96 2522.5,5591.96L2649.06,5591.96C2671.84,5591.96 2690.75,5575.42 2694.43,5553.69ZM2740.47,5545.92L2709.12,5455.39C2703.06,5437.62 2695.2,5423.65 2685.53,5413.49C2675.87,5403.34 2665.37,5398.26 2654.04,5398.26L2649.06,5398.26L2649.06,5545.92L2522.5,5545.92L2522.5,5125.8L2690.66,5125.8C2749.45,5125.8 2792.86,5135.42 2820.89,5154.66C2848.91,5173.9 2862.93,5202.75 2862.93,5241.23C2862.93,5270.14 2854.77,5294.35 2838.46,5313.89C2822.15,5333.42 2797.89,5347.58 2765.66,5356.37L2765.66,5357.54C2783.43,5363.01 2798.23,5371.89 2810.05,5384.2C2821.86,5396.5 2832.46,5414.76 2841.83,5438.98L2883.14,5545.92L2740.47,5545.92ZM2728.45,5259.1C2728.45,5245.04 2724.16,5233.9 2715.56,5225.7C2706.97,5217.5 2693.49,5213.4 2675.13,5213.4L2649.06,5213.4L2649.06,5309.49L2671.91,5309.49C2688.9,5309.49 2702.57,5304.7 2712.93,5295.14C2723.28,5285.57 2728.45,5273.55 2728.45,5259.1Z" style="fill:rgb(238,238,238);"/>
            <path d="M3254.12,5452.68C3248.86,5462.76 3239.97,5470.64 3229.18,5474.6L3229.18,5535.08C3229.18,5553.9 3217.72,5570.83 3200.24,5577.82C3165.25,5591.82 3122.88,5599.28 3072.99,5599.28C3007.04,5599.28 2956.32,5580.71 2919.65,5547C2881.49,5511.9 2861.12,5464.13 2861.12,5402.65C2861.12,5362.37 2869.51,5326.93 2885.5,5296.16C2902.47,5263.52 2927.51,5237.83 2960.8,5219.31C2992.68,5201.57 3027.8,5192.55 3066.25,5192.55C3105.99,5192.55 3139.84,5200.9 3168.08,5216.39C3198.37,5233.01 3221.31,5256.39 3236.99,5286.42C3243.82,5299.49 3249.15,5313.58 3252.87,5328.71L3252.87,5426.97C3252.87,5436.02 3253.27,5444.59 3254.12,5452.68ZM3027.87,5431.37C3030.02,5444.26 3037.44,5454.36 3050.13,5461.69C3062.83,5469.01 3079.62,5472.67 3100.52,5472.67C3129.62,5472.67 3157.16,5467.11 3183.14,5455.98L3183.14,5535.08C3152.87,5547.19 3116.15,5553.24 3072.99,5553.24C3020.64,5553.24 2979.92,5539.86 2950.82,5513.1C2921.72,5486.35 2907.16,5449.53 2907.16,5402.65C2907.16,5370.43 2913.56,5342.01 2926.35,5317.4C2939.15,5292.79 2958.09,5273.5 2983.19,5259.54C3008.29,5245.57 3035.97,5238.59 3066.25,5238.59C3097.3,5238.59 3123.86,5244.65 3145.93,5256.76C3168,5268.87 3184.75,5285.86 3196.18,5307.73C3207.6,5329.61 3213.32,5355.19 3213.32,5384.49L3213.32,5431.37L3027.87,5431.37ZM3102.87,5366.03C3102.87,5331.46 3090.47,5314.18 3065.66,5314.18C3055.31,5314.18 3046.62,5318.91 3039.59,5328.39C3032.55,5337.86 3028.45,5350.41 3027.28,5366.03L3102.87,5366.03ZM3064.48,5360.08L3063.66,5359.2L3063.18,5359.68L3063.72,5359.9L3064.48,5360.08Z" style="fill:rgb(238,238,238);"/>
            <path d="M3206.83,5334.66L3206.83,5245.92C3206.83,5220.49 3227.44,5199.88 3252.87,5199.88L3377.67,5199.88C3391.61,5199.88 3404.1,5206.07 3412.53,5215.86C3420.97,5206.07 3433.46,5199.88 3447.4,5199.88L3572.2,5199.88C3597.63,5199.88 3618.24,5220.49 3618.24,5245.92L3618.24,5545.92C3618.24,5571.34 3597.63,5591.96 3572.2,5591.96L3447.4,5591.96C3437.57,5591.96 3428.46,5588.88 3420.99,5583.62C3416.48,5585.94 3411.8,5588.04 3406.95,5589.95C3391.66,5595.95 3373.93,5599.28 3353.65,5599.28C3304.86,5599.28 3268.38,5581.88 3242.83,5550.23C3220.87,5523.03 3207.56,5483.78 3206.86,5431.37L3213.32,5431.37L3213.32,5384.49C3213.32,5366.48 3211.16,5349.86 3206.83,5334.66ZM3436.41,5512.36C3439.8,5526.75 3444.02,5539.34 3445.6,5543.87L3425.83,5524.1C3423.23,5526.73 3420.69,5529.02 3418.25,5530.98C3409.95,5537.62 3400.57,5542.99 3390.12,5547.09C3379.67,5551.19 3367.52,5553.24 3353.65,5553.24C3320.84,5553.24 3295.84,5542.6 3278.65,5521.31C3261.46,5500.02 3252.87,5468.57 3252.87,5426.97L3252.87,5245.92L3377.67,5245.92L3377.67,5417.6C3377.67,5447.09 3388.71,5461.83 3410.78,5461.83C3422.89,5461.83 3432.02,5457.83 3438.17,5449.82C3444.32,5441.82 3447.4,5430.49 3447.4,5415.84L3447.4,5245.92L3572.2,5245.92L3572.2,5545.92L3447.4,5545.92L3447.4,5499.63L3446.23,5499.63C3442.85,5504.28 3439.58,5508.53 3436.41,5512.36Z" style="fill:rgb(238,238,238);"/>
            <path d="M3920.45,5467.87C3915.51,5507.69 3896.37,5539.15 3863.82,5562.61C3831.4,5585.98 3786.63,5599.28 3728.65,5599.28C3713.48,5599.28 3694.72,5597.83 3672.41,5594.75C3649.53,5591.59 3630.9,5587.63 3616.48,5583.12C3597.26,5577.12 3584.17,5559.32 3584.17,5539.18L3584.17,5451.58C3584.17,5435.99 3592.05,5421.47 3605.12,5412.98L3605.25,5412.9C3591.62,5393.01 3584.17,5368.64 3584.17,5339.37C3584.17,5292.62 3602.9,5255.72 3640.1,5228.53C3671.36,5205.67 3714.83,5192.55 3771.42,5192.55C3801.23,5192.55 3832.84,5196.78 3866.21,5205.46C3886.5,5210.73 3900.67,5229.05 3900.67,5250.02L3900.67,5334.1C3900.67,5344.48 3897.17,5354.4 3890.95,5362.36C3898.2,5370.33 3904.24,5379.06 3908.97,5388.58C3908.67,5393.19 3908.53,5397.88 3908.53,5402.65C3908.53,5427.14 3912.5,5448.89 3920.45,5467.87ZM3875.72,5446.31C3875.72,5480.29 3862.78,5506.61 3836.9,5525.26C3811.02,5543.91 3774.94,5553.24 3728.65,5553.24C3715.17,5553.24 3698.52,5551.87 3678.7,5549.14C3658.87,5546.4 3642.71,5543.08 3630.21,5539.18L3630.21,5451.58C3667.12,5467.99 3697.99,5476.19 3722.79,5476.19C3747.2,5476.19 3759.41,5469.84 3759.41,5457.15C3759.41,5451.87 3756.58,5447.53 3750.91,5444.11C3745.25,5440.69 3730.41,5434.98 3706.38,5426.97C3679.82,5418.57 3660.49,5407.44 3648.38,5393.57C3636.27,5379.7 3630.21,5361.64 3630.21,5339.37C3630.21,5308.32 3642.57,5283.76 3667.27,5265.69C3691.98,5247.62 3726.7,5238.59 3771.42,5238.59C3797.59,5238.59 3825.33,5242.4 3854.62,5250.02L3854.62,5334.1C3842.32,5328.83 3828.84,5324.43 3814.2,5320.92C3799.55,5317.4 3787.24,5315.64 3777.28,5315.64C3769.08,5315.64 3762.53,5317.01 3757.65,5319.74C3752.77,5322.48 3750.33,5326.29 3750.33,5331.17C3750.33,5336.83 3752.97,5341.42 3758.24,5344.94C3763.51,5348.45 3774.06,5352.65 3789.88,5357.54C3820.54,5366.52 3842.52,5378.05 3855.8,5392.11C3869.08,5406.17 3875.72,5424.24 3875.72,5446.31Z" style="fill:rgb(238,238,238);"/>
            <path d="M3862.52,5400.38C3862.81,5361.03 3871.18,5326.35 3886.87,5296.16C3903.84,5263.52 3928.88,5237.83 3962.17,5219.31C3994.05,5201.57 4029.17,5192.55 4067.61,5192.55C4107.35,5192.55 4141.2,5200.9 4169.45,5216.39C4199.74,5233.01 4222.67,5256.39 4238.36,5286.42C4252.97,5314.4 4260.73,5347.02 4260.73,5384.49L4260.73,5431.37C4260.73,5451.22 4248.16,5468.13 4230.55,5474.6L4230.55,5535.08C4230.55,5553.9 4219.09,5570.83 4201.61,5577.82C4166.61,5591.82 4124.25,5599.28 4074.35,5599.28C4008.41,5599.28 3957.68,5580.71 3921.02,5547C3898.71,5526.48 3882.48,5501.63 3872.86,5472.24C3874.77,5464.16 3875.72,5455.51 3875.72,5446.31C3875.72,5428.34 3871.32,5413.03 3862.52,5400.38ZM4029.24,5431.37C4031.38,5444.26 4038.81,5454.36 4051.5,5461.69C4064.2,5469.01 4080.99,5472.67 4101.89,5472.67C4130.99,5472.67 4158.53,5467.11 4184.51,5455.98L4184.51,5535.08C4154.23,5547.19 4117.52,5553.24 4074.35,5553.24C4022.01,5553.24 3981.29,5539.86 3952.18,5513.1C3923.08,5486.35 3908.53,5449.53 3908.53,5402.65C3908.53,5370.43 3914.93,5342.01 3927.72,5317.4C3940.51,5292.79 3959.46,5273.5 3984.56,5259.54C4009.65,5245.57 4037.34,5238.59 4067.61,5238.59C4098.67,5238.59 4125.23,5244.65 4147.3,5256.76C4169.37,5268.87 4186.12,5285.86 4197.55,5307.73C4208.97,5329.61 4214.68,5355.19 4214.68,5384.49L4214.68,5431.37L4029.24,5431.37ZM4104.23,5366.03C4104.23,5331.46 4091.83,5314.18 4067.03,5314.18C4056.68,5314.18 4047.99,5318.91 4040.95,5328.39C4033.92,5337.86 4029.82,5350.41 4028.65,5366.03L4104.23,5366.03ZM4065.85,5360.08L4065.03,5359.2L4064.54,5359.68L4065.09,5359.9L4065.85,5360.08Z" style="fill:rgb(238,238,238);"/>
            <path d="M4439.44,5493.77C4439.44,5461.96 4427.33,5436.33 4403.65,5416.63C4383.27,5399.66 4356.95,5390.01 4323.96,5390.01C4290.04,5390.01 4263.49,5399.89 4243.42,5416.85C4220.16,5436.5 4208.19,5462.04 4208.19,5493.77C4208.19,5524.16 4219.61,5549.77 4242.76,5570.44C4263.58,5589.04 4290.04,5599.28 4322.79,5599.28C4357.99,5599.28 4385.03,5588.93 4404.96,5571.48C4427.59,5551.69 4439.44,5525.94 4439.44,5493.77ZM4393.4,5493.77C4393.4,5511.54 4387.15,5525.9 4374.65,5536.83C4362.15,5547.77 4344.86,5553.24 4322.79,5553.24C4302.67,5553.24 4286.22,5547.53 4273.42,5536.1C4260.63,5524.68 4254.23,5510.57 4254.23,5493.77C4254.23,5476.58 4260.53,5462.66 4273.13,5452.02C4285.73,5441.38 4302.67,5436.05 4323.96,5436.05C4344.66,5436.05 4361.41,5441.38 4374.2,5452.02C4387,5462.66 4393.4,5476.58 4393.4,5493.77Z" style="fill:rgb(238,238,238);"/>
            <path d="M2740.47,5545.92L2709.12,5455.39C2703.06,5437.62 2695.2,5423.65 2685.53,5413.49C2675.87,5403.34 2665.37,5398.26 2654.04,5398.26L2649.06,5398.26L2649.06,5545.92L2522.5,5545.92L2522.5,5125.8L2690.66,5125.8C2749.45,5125.8 2792.86,5135.42 2820.89,5154.66C2848.91,5173.9 2862.93,5202.75 2862.93,5241.23C2862.93,5270.14 2854.77,5294.35 2838.46,5313.89C2822.15,5333.42 2797.89,5347.58 2765.66,5356.37L2765.66,5357.54C2783.43,5363.01 2798.23,5371.89 2810.05,5384.2C2821.86,5396.5 2832.46,5414.76 2841.83,5438.98L2883.14,5545.92L2740.47,5545.92ZM2728.45,5259.1C2728.45,5245.04 2724.16,5233.9 2715.56,5225.7C2706.97,5217.5 2693.49,5213.4 2675.13,5213.4L2649.06,5213.4L2649.06,5309.49L2671.91,5309.49C2688.9,5309.49 2702.57,5304.7 2712.93,5295.14C2723.28,5285.57 2728.45,5273.55 2728.45,5259.1Z" style="fill:url(#_Linear12);fill-rule:nonzero;"/>
            <path d="M3027.87,5431.37C3030.02,5444.26 3037.44,5454.36 3050.13,5461.69C3062.83,5469.01 3079.62,5472.67 3100.52,5472.67C3129.62,5472.67 3157.16,5467.11 3183.14,5455.98L3183.14,5535.08C3152.87,5547.19 3116.15,5553.24 3072.99,5553.24C3020.64,5553.24 2979.92,5539.86 2950.82,5513.1C2921.72,5486.35 2907.16,5449.53 2907.16,5402.65C2907.16,5370.43 2913.56,5342.01 2926.35,5317.4C2939.15,5292.79 2958.09,5273.5 2983.19,5259.54C3008.29,5245.57 3035.97,5238.59 3066.25,5238.59C3097.3,5238.59 3123.86,5244.65 3145.93,5256.76C3168,5268.87 3184.75,5285.86 3196.18,5307.73C3207.6,5329.61 3213.32,5355.19 3213.32,5384.49L3213.32,5431.37L3027.87,5431.37ZM3102.87,5366.03C3102.87,5331.46 3090.47,5314.18 3065.66,5314.18C3055.31,5314.18 3046.62,5318.91 3039.59,5328.39C3032.55,5337.86 3028.45,5350.41 3027.28,5366.03L3102.87,5366.03Z" style="fill:url(#_Linear13);fill-rule:nonzero;"/>
            <path d="M3447.4,5545.92L3447.4,5499.63L3446.23,5499.63C3435.88,5513.89 3426.55,5524.33 3418.25,5530.98C3409.95,5537.62 3400.57,5542.99 3390.12,5547.09C3379.67,5551.19 3367.52,5553.24 3353.65,5553.24C3320.84,5553.24 3295.84,5542.6 3278.65,5521.31C3261.46,5500.02 3252.87,5468.57 3252.87,5426.97L3252.87,5245.92L3377.67,5245.92L3377.67,5417.6C3377.67,5447.09 3388.71,5461.83 3410.78,5461.83C3422.89,5461.83 3432.02,5457.83 3438.17,5449.82C3444.32,5441.82 3447.4,5430.49 3447.4,5415.84L3447.4,5245.92L3572.2,5245.92L3572.2,5545.92L3447.4,5545.92Z" style="fill:url(#_Linear14);fill-rule:nonzero;"/>
            <path d="M3875.72,5446.31C3875.72,5480.29 3862.78,5506.61 3836.9,5525.26C3811.02,5543.91 3774.94,5553.24 3728.65,5553.24C3715.17,5553.24 3698.52,5551.87 3678.7,5549.14C3658.87,5546.4 3642.71,5543.08 3630.21,5539.18L3630.21,5451.58C3667.12,5467.99 3697.99,5476.19 3722.79,5476.19C3747.2,5476.19 3759.41,5469.84 3759.41,5457.15C3759.41,5451.87 3756.58,5447.53 3750.91,5444.11C3745.25,5440.69 3730.41,5434.98 3706.38,5426.97C3679.82,5418.57 3660.49,5407.44 3648.38,5393.57C3636.27,5379.7 3630.21,5361.64 3630.21,5339.37C3630.21,5308.32 3642.57,5283.76 3667.27,5265.69C3691.98,5247.62 3726.7,5238.59 3771.42,5238.59C3797.59,5238.59 3825.33,5242.4 3854.62,5250.02L3854.62,5334.1C3842.32,5328.83 3828.84,5324.43 3814.2,5320.92C3799.55,5317.4 3787.24,5315.64 3777.28,5315.64C3769.08,5315.64 3762.53,5317.01 3757.65,5319.74C3752.77,5322.48 3750.33,5326.29 3750.33,5331.17C3750.33,5336.83 3752.97,5341.42 3758.24,5344.94C3763.51,5348.45 3774.06,5352.65 3789.88,5357.54C3820.54,5366.52 3842.52,5378.05 3855.8,5392.11C3869.08,5406.17 3875.72,5424.24 3875.72,5446.31Z" style="fill:url(#_Linear15);fill-rule:nonzero;"/>
            <path d="M4029.24,5431.37C4031.38,5444.26 4038.81,5454.36 4051.5,5461.69C4064.2,5469.01 4080.99,5472.67 4101.89,5472.67C4130.99,5472.67 4158.53,5467.11 4184.51,5455.98L4184.51,5535.08C4154.23,5547.19 4117.52,5553.24 4074.35,5553.24C4022.01,5553.24 3981.29,5539.86 3952.18,5513.1C3923.08,5486.35 3908.53,5449.53 3908.53,5402.65C3908.53,5370.43 3914.93,5342.01 3927.72,5317.4C3940.51,5292.79 3959.46,5273.5 3984.56,5259.54C4009.65,5245.57 4037.34,5238.59 4067.61,5238.59C4098.67,5238.59 4125.23,5244.65 4147.3,5256.76C4169.37,5268.87 4186.12,5285.86 4197.55,5307.73C4208.97,5329.61 4214.68,5355.19 4214.68,5384.49L4214.68,5431.37L4029.24,5431.37ZM4104.23,5366.03C4104.23,5331.46 4091.83,5314.18 4067.03,5314.18C4056.68,5314.18 4047.99,5318.91 4040.95,5328.39C4033.92,5337.86 4029.82,5350.41 4028.65,5366.03L4104.23,5366.03Z" style="fill:url(#_Linear16);fill-rule:nonzero;"/>
            <path d="M4393.4,5493.77C4393.4,5511.54 4387.15,5525.9 4374.65,5536.83C4362.15,5547.77 4344.86,5553.24 4322.79,5553.24C4302.67,5553.24 4286.22,5547.53 4273.42,5536.1C4260.63,5524.68 4254.23,5510.57 4254.23,5493.77C4254.23,5476.58 4260.53,5462.66 4273.13,5452.02C4285.73,5441.38 4302.67,5436.05 4323.96,5436.05C4344.66,5436.05 4361.41,5441.38 4374.2,5452.02C4387,5462.66 4393.4,5476.58 4393.4,5493.77Z" style="fill:url(#_Linear17);fill-rule:nonzero;"/>
        </g>
        <g id="Use-colorful" serif:id="Use colorful" transform="matrix(0.159615,0,0,0.159615,-32.9764,-552.143)">
            <path d="M2675.68,5583.62C2683.15,5588.88 2692.26,5591.96 2702.09,5591.96L2826.89,5591.96C2852.32,5591.96 2872.93,5571.34 2872.93,5545.92L2872.93,5245.92C2872.93,5220.49 2852.32,5199.88 2826.89,5199.88L2702.09,5199.88C2688.15,5199.88 2675.65,5206.07 2667.22,5215.86C2658.79,5206.07 2646.3,5199.88 2632.36,5199.88L2507.55,5199.88C2482.13,5199.88 2461.51,5220.49 2461.51,5245.92L2461.51,5426.97C2461.51,5481.6 2474.95,5522.28 2497.51,5550.23C2523.07,5581.88 2559.55,5599.28 2608.34,5599.28C2628.62,5599.28 2646.35,5595.95 2661.63,5589.95C2666.49,5588.04 2671.17,5585.94 2675.68,5583.62ZM2691.1,5512.36C2694.49,5526.75 2698.71,5539.34 2700.29,5543.87L2680.52,5524.1C2677.91,5526.73 2675.38,5529.02 2672.94,5530.98C2664.64,5537.62 2655.26,5542.99 2644.81,5547.09C2634.36,5551.19 2622.2,5553.24 2608.34,5553.24C2575.52,5553.24 2550.52,5542.6 2533.34,5521.31C2516.15,5500.02 2507.55,5468.57 2507.55,5426.97L2507.55,5245.92L2632.36,5245.92L2632.36,5417.6C2632.36,5447.09 2643.39,5461.83 2665.47,5461.83C2677.57,5461.83 2686.7,5457.83 2692.86,5449.82C2699.01,5441.82 2702.09,5430.49 2702.09,5415.84L2702.09,5245.92L2826.89,5245.92L2826.89,5545.92L2702.09,5545.92L2702.09,5499.63L2700.91,5499.63C2697.54,5504.28 2694.27,5508.53 2691.1,5512.36Z" style="fill:rgb(238,238,238);"/>
            <path d="M3175.14,5467.87C3170.19,5507.69 3151.06,5539.15 3118.51,5562.61C3086.09,5585.98 3041.32,5599.28 2983.34,5599.28C2968.16,5599.28 2949.41,5597.83 2927.09,5594.75C2904.22,5591.59 2885.59,5587.63 2871.17,5583.12C2851.95,5577.12 2838.86,5559.32 2838.86,5539.18L2838.86,5451.58C2838.86,5435.99 2846.74,5421.47 2859.81,5412.98L2859.93,5412.9C2846.3,5393.01 2838.86,5368.64 2838.86,5339.37C2838.86,5292.62 2857.59,5255.72 2894.78,5228.53C2926.04,5205.67 2969.52,5192.55 3026.11,5192.55C3055.92,5192.55 3087.53,5196.78 3120.9,5205.46C3141.19,5210.73 3155.35,5229.05 3155.35,5250.02L3155.35,5334.1C3155.35,5344.48 3151.86,5354.4 3145.64,5362.36C3152.89,5370.33 3158.93,5379.06 3163.66,5388.58C3163.36,5393.19 3163.22,5397.88 3163.22,5402.65C3163.22,5427.14 3167.19,5448.89 3175.14,5467.87ZM3130.41,5446.31C3130.41,5480.29 3117.47,5506.61 3091.59,5525.26C3065.71,5543.91 3029.62,5553.24 2983.34,5553.24C2969.86,5553.24 2953.21,5551.87 2933.39,5549.14C2913.56,5546.4 2897.4,5543.08 2884.9,5539.18L2884.9,5451.58C2921.81,5467.99 2952.67,5476.19 2977.48,5476.19C3001.89,5476.19 3014.1,5469.84 3014.1,5457.15C3014.1,5451.87 3011.27,5447.53 3005.6,5444.11C2999.94,5440.69 2985.09,5434.98 2961.07,5426.97C2934.51,5418.57 2915.17,5407.44 2903.06,5393.57C2890.95,5379.7 2884.9,5361.64 2884.9,5339.37C2884.9,5308.32 2897.25,5283.76 2921.96,5265.69C2946.67,5247.62 2981.38,5238.59 3026.11,5238.59C3052.28,5238.59 3080.02,5242.4 3109.31,5250.02L3109.31,5334.1C3097.01,5328.83 3083.53,5324.43 3068.88,5320.92C3054.24,5317.4 3041.93,5315.64 3031.97,5315.64C3023.77,5315.64 3017.22,5317.01 3012.34,5319.74C3007.46,5322.48 3005.02,5326.29 3005.02,5331.17C3005.02,5336.83 3007.65,5341.42 3012.93,5344.94C3018.2,5348.45 3028.75,5352.65 3044.57,5357.54C3075.23,5366.52 3097.2,5378.05 3110.49,5392.11C3123.77,5406.17 3130.41,5424.24 3130.41,5446.31Z" style="fill:rgb(238,238,238);"/>
            <path d="M3117.21,5400.38C3117.5,5361.03 3125.87,5326.35 3141.56,5296.16C3158.53,5263.52 3183.56,5237.83 3216.86,5219.31C3248.73,5201.57 3283.85,5192.55 3322.3,5192.55C3362.04,5192.55 3395.89,5200.9 3424.14,5216.39C3454.43,5233.01 3477.36,5256.39 3493.04,5286.42C3507.66,5314.4 3515.41,5347.02 3515.41,5384.49L3515.41,5431.37C3515.41,5451.22 3502.85,5468.13 3485.24,5474.6L3485.24,5535.08C3485.24,5553.9 3473.78,5570.83 3456.3,5577.82C3421.3,5591.82 3378.93,5599.28 3329.04,5599.28C3263.1,5599.28 3212.37,5580.71 3175.71,5547C3153.4,5526.48 3137.17,5501.63 3127.55,5472.24C3129.46,5464.16 3130.41,5455.51 3130.41,5446.31C3130.41,5428.34 3126.01,5413.03 3117.21,5400.38ZM3283.92,5431.37C3286.07,5444.26 3293.49,5454.36 3306.19,5461.69C3318.88,5469.01 3335.68,5472.67 3356.58,5472.67C3385.68,5472.67 3413.22,5467.11 3439.2,5455.98L3439.2,5535.08C3408.92,5547.19 3372.2,5553.24 3329.04,5553.24C3276.7,5553.24 3235.97,5539.86 3206.87,5513.1C3177.77,5486.35 3163.22,5449.53 3163.22,5402.65C3163.22,5370.43 3169.62,5342.01 3182.41,5317.4C3195.2,5292.79 3214.15,5273.5 3239.24,5259.54C3264.34,5245.57 3292.03,5238.59 3322.3,5238.59C3353.36,5238.59 3379.92,5244.65 3401.99,5256.76C3424.06,5268.87 3440.81,5285.86 3452.23,5307.73C3463.66,5329.61 3469.37,5355.19 3469.37,5384.49L3469.37,5431.37L3283.92,5431.37ZM3358.92,5366.03C3358.92,5331.46 3346.52,5314.18 3321.72,5314.18C3311.36,5314.18 3302.67,5318.91 3295.64,5328.39C3288.61,5337.86 3284.51,5350.41 3283.34,5366.03L3358.92,5366.03ZM3320.53,5360.08L3319.71,5359.2L3319.23,5359.68L3319.78,5359.9L3320.53,5360.08Z" style="fill:rgb(238,238,238);"/>
            <path d="M3694.12,5493.77C3694.12,5461.96 3682.02,5436.33 3658.34,5416.63C3637.95,5399.66 3611.64,5390.01 3578.65,5390.01C3544.72,5390.01 3518.18,5399.89 3498.1,5416.85C3474.85,5436.5 3462.88,5462.04 3462.88,5493.77C3462.88,5524.16 3474.29,5549.77 3497.44,5570.44C3518.27,5589.04 3544.73,5599.28 3577.48,5599.28C3612.68,5599.28 3639.71,5588.93 3659.65,5571.48C3682.28,5551.69 3694.12,5525.94 3694.12,5493.77ZM3648.08,5493.77C3648.08,5511.54 3641.83,5525.9 3629.33,5536.83C3616.83,5547.77 3599.55,5553.24 3577.48,5553.24C3557.36,5553.24 3540.9,5547.53 3528.11,5536.1C3515.32,5524.68 3508.92,5510.57 3508.92,5493.77C3508.92,5476.58 3515.22,5462.66 3527.82,5452.02C3540.42,5441.38 3557.36,5436.05 3578.65,5436.05C3599.35,5436.05 3616.1,5441.38 3628.89,5452.02C3641.69,5462.66 3648.08,5476.58 3648.08,5493.77Z" style="fill:rgb(238,238,238);"/>
            <path d="M2702.09,5545.92L2702.09,5499.63L2700.91,5499.63C2690.56,5513.89 2681.24,5524.33 2672.94,5530.98C2664.64,5537.62 2655.26,5542.99 2644.81,5547.09C2634.36,5551.19 2622.2,5553.24 2608.34,5553.24C2575.52,5553.24 2550.52,5542.6 2533.34,5521.31C2516.15,5500.02 2507.55,5468.57 2507.55,5426.97L2507.55,5245.92L2632.36,5245.92L2632.36,5417.6C2632.36,5447.09 2643.39,5461.83 2665.47,5461.83C2677.57,5461.83 2686.7,5457.83 2692.86,5449.82C2699.01,5441.82 2702.09,5430.49 2702.09,5415.84L2702.09,5245.92L2826.89,5245.92L2826.89,5545.92L2702.09,5545.92Z" style="fill:url(#_Linear18);fill-rule:nonzero;"/>
            <path d="M3130.41,5446.31C3130.41,5480.29 3117.47,5506.61 3091.59,5525.26C3065.71,5543.91 3029.62,5553.24 2983.34,5553.24C2969.86,5553.24 2953.21,5551.87 2933.39,5549.14C2913.56,5546.4 2897.4,5543.08 2884.9,5539.18L2884.9,5451.58C2921.81,5467.99 2952.67,5476.19 2977.48,5476.19C3001.89,5476.19 3014.1,5469.84 3014.1,5457.15C3014.1,5451.87 3011.27,5447.53 3005.6,5444.11C2999.94,5440.69 2985.09,5434.98 2961.07,5426.97C2934.51,5418.57 2915.17,5407.44 2903.06,5393.57C2890.95,5379.7 2884.9,5361.64 2884.9,5339.37C2884.9,5308.32 2897.25,5283.76 2921.96,5265.69C2946.67,5247.62 2981.38,5238.59 3026.11,5238.59C3052.28,5238.59 3080.02,5242.4 3109.31,5250.02L3109.31,5334.1C3097.01,5328.83 3083.53,5324.43 3068.88,5320.92C3054.24,5317.4 3041.93,5315.64 3031.97,5315.64C3023.77,5315.64 3017.22,5317.01 3012.34,5319.74C3007.46,5322.48 3005.02,5326.29 3005.02,5331.17C3005.02,5336.83 3007.65,5341.42 3012.93,5344.94C3018.2,5348.45 3028.75,5352.65 3044.57,5357.54C3075.23,5366.52 3097.2,5378.05 3110.49,5392.11C3123.77,5406.17 3130.41,5424.24 3130.41,5446.31Z" style="fill:url(#_Linear19);fill-rule:nonzero;"/>
            <path d="M3283.92,5431.37C3286.07,5444.26 3293.49,5454.36 3306.19,5461.69C3318.88,5469.01 3335.68,5472.67 3356.58,5472.67C3385.68,5472.67 3413.22,5467.11 3439.2,5455.98L3439.2,5535.08C3408.92,5547.19 3372.2,5553.24 3329.04,5553.24C3276.7,5553.24 3235.97,5539.86 3206.87,5513.1C3177.77,5486.35 3163.22,5449.53 3163.22,5402.65C3163.22,5370.43 3169.62,5342.01 3182.41,5317.4C3195.2,5292.79 3214.15,5273.5 3239.24,5259.54C3264.34,5245.57 3292.03,5238.59 3322.3,5238.59C3353.36,5238.59 3379.92,5244.65 3401.99,5256.76C3424.06,5268.87 3440.81,5285.86 3452.23,5307.73C3463.66,5329.61 3469.37,5355.19 3469.37,5384.49L3469.37,5431.37L3283.92,5431.37ZM3358.92,5366.03C3358.92,5331.46 3346.52,5314.18 3321.72,5314.18C3311.36,5314.18 3302.67,5318.91 3295.64,5328.39C3288.61,5337.86 3284.51,5350.41 3283.34,5366.03L3358.92,5366.03Z" style="fill:url(#_Linear20);fill-rule:nonzero;"/>
            <path d="M3648.08,5493.77C3648.08,5511.54 3641.83,5525.9 3629.33,5536.83C3616.83,5547.77 3599.55,5553.24 3577.48,5553.24C3557.36,5553.24 3540.9,5547.53 3528.11,5536.1C3515.32,5524.68 3508.92,5510.57 3508.92,5493.77C3508.92,5476.58 3515.22,5462.66 3527.82,5452.02C3540.42,5441.38 3557.36,5436.05 3578.65,5436.05C3599.35,5436.05 3616.1,5441.38 3628.89,5452.02C3641.69,5462.66 3648.08,5476.58 3648.08,5493.77Z" style="fill:url(#_Linear21);fill-rule:nonzero;"/>
        </g>
    </g>
    <defs>
        <linearGradient id="_Linear1" x1="0" y1="0" x2="1" y2="0" gradientUnits="userSpaceOnUse" gradientTransform="matrix(6275.85,2461.8,-2461.8,6275.85,2132.09,3599.83)"><stop offset="0" style="stop-color:rgb(255,208,0);stop-opacity:1"/><stop offset="1" style="stop-color:rgb(255,0,0);stop-opacity:1"/></linearGradient>
        <linearGradient id="_Linear2" x1="0" y1="0" x2="1" y2="0" gradientUnits="userSpaceOnUse" gradientTransform="matrix(6275.85,2461.8,-2461.8,6275.85,2132.09,3599.83)"><stop offset="0" style="stop-color:rgb(255,208,0);stop-opacity:1"/><stop offset="1" style="stop-color:rgb(255,0,0);stop-opacity:1"/></linearGradient>
        <linearGradient id="_Linear3" x1="0" y1="0" x2="1" y2="0" gradientUnits="userSpaceOnUse" gradientTransform="matrix(6275.85,2461.8,-2461.8,6275.85,2132.09,3599.83)"><stop offset="0" style="stop-color:rgb(255,208,0);stop-opacity:1"/><stop offset="1" style="stop-color:rgb(255,0,0);stop-opacity:1"/></linearGradient>
        <linearGradient id="_Linear4" x1="0" y1="0" x2="1" y2="0" gradientUnits="userSpaceOnUse" gradientTransform="matrix(6275.85,2461.8,-2461.8,6275.85,2132.09,3599.83)"><stop offset="0" style="stop-color:rgb(255,208,0);stop-opacity:1"/><stop offset="1" style="stop-color:rgb(255,0,0);stop-opacity:1"/></linearGradient>
        <linearGradient id="_Linear5" x1="0" y1="0" x2="1" y2="0" gradientUnits="userSpaceOnUse" gradientTransform="matrix(6275.85,2461.8,-2461.8,6275.85,2132.09,3599.83)"><stop offset="0" style="stop-color:rgb(255,208,0);stop-opacity:1"/><stop offset="1" style="stop-color:rgb(255,0,0);stop-opacity:1"/></linearGradient>
        <linearGradient id="_Linear6" x1="0" y1="0" x2="1" y2="0" gradientUnits="userSpaceOnUse" gradientTransform="matrix(6632.92,0,0,2e-06,2099.98,10466.8)"><stop offset="0" style="stop-color:rgb(121,87,213);stop-opacity:1"/><stop offset="1" style="stop-color:rgb(205,0,212);stop-opacity:1"/></linearGradient>
        <linearGradient id="_Linear7" x1="0" y1="0" x2="1" y2="0" gradientUnits="userSpaceOnUse" gradientTransform="matrix(6632.92,0,0,2e-06,2099.98,10466.8)"><stop offset="0" style="stop-color:rgb(121,87,213);stop-opacity:1"/><stop offset="1" style="stop-color:rgb(205,0,212);stop-opacity:1"/></linearGradient>
        <linearGradient id="_Linear8" x1="0" y1="0" x2="1" y2="0" gradientUnits="userSpaceOnUse" gradientTransform="matrix(6632.92,0,0,2e-06,2099.98,10466.8)"><stop offset="0" style="stop-color:rgb(121,87,213);stop-opacity:1"/><stop offset="1" style="stop-color:rgb(205,0,212);stop-opacity:1"/></linearGradient>
        <linearGradient id="_Linear9" x1="0" y1="0" x2="1" y2="0" gradientUnits="userSpaceOnUse" gradientTransform="matrix(6632.92,0,0,2e-06,2099.98,10466.8)"><stop offset="0" style="stop-color:rgb(121,87,213);stop-opacity:1"/><stop offset="1" style="stop-color:rgb(205,0,212);stop-opacity:1"/></linearGradient>
        <linearGradient id="_Linear10" x1="0" y1="0" x2="1" y2="0" gradientUnits="userSpaceOnUse" gradientTransform="matrix(6632.92,0,0,2e-06,2099.98,10466.8)"><stop offset="0" style="stop-color:rgb(121,87,213);stop-opacity:1"/><stop offset="1" style="stop-color:rgb(205,0,212);stop-opacity:1"/></linearGradient>
        <linearGradient id="_Linear11" x1="0" y1="0" x2="1" y2="0" gradientUnits="userSpaceOnUse" gradientTransform="matrix(6632.92,0,0,2e-06,2099.98,10466.8)"><stop offset="0" style="stop-color:rgb(121,87,213);stop-opacity:1"/><stop offset="1" style="stop-color:rgb(205,0,212);stop-opacity:1"/></linearGradient>
        <linearGradient id="_Linear12" x1="0" y1="0" x2="1" y2="0" gradientUnits="userSpaceOnUse" gradientTransform="matrix(2117.89,-476.498,476.498,2117.89,2522.5,5545.92)"><stop offset="0" style="stop-color:rgb(0,255,191);stop-opacity:1"/><stop offset="1" style="stop-color:rgb(0,189,223);stop-opacity:1"/></linearGradient>
        <linearGradient id="_Linear13" x1="0" y1="0" x2="1" y2="0" gradientUnits="userSpaceOnUse" gradientTransform="matrix(2117.89,-476.498,476.498,2117.89,2522.5,5545.92)"><stop offset="0" style="stop-color:rgb(0,255,191);stop-opacity:1"/><stop offset="1" style="stop-color:rgb(0,189,223);stop-opacity:1"/></linearGradient>
        <linearGradient id="_Linear14" x1="0" y1="0" x2="1" y2="0" gradientUnits="userSpaceOnUse" gradientTransform="matrix(2117.89,-476.498,476.498,2117.89,2522.5,5545.92)"><stop offset="0" style="stop-color:rgb(0,255,191);stop-opacity:1"/><stop offset="1" style="stop-color:rgb(0,189,223);stop-opacity:1"/></linearGradient>
        <linearGradient id="_Linear15" x1="0" y1="0" x2="1" y2="0" gradientUnits="userSpaceOnUse" gradientTransform="matrix(2117.89,-476.498,476.498,2117.89,2522.5,5545.92)"><stop offset="0" style="stop-color:rgb(0,255,191);stop-opacity:1"/><stop offset="1" style="stop-color:rgb(0,189,223);stop-opacity:1"/></linearGradient>
        <linearGradient id="_Linear16" x1="0" y1="0" x2="1" y2="0" gradientUnits="userSpaceOnUse" gradientTransform="matrix(2117.89,-476.498,476.498,2117.89,2522.5,5545.92)"><stop offset="0" style="stop-color:rgb(0,255,191);stop-opacity:1"/><stop offset="1" style="stop-color:rgb(0,189,223);stop-opacity:1"/></linearGradient>
        <linearGradient id="_Linear17" x1="0" y1="0" x2="1" y2="0" gradientUnits="userSpaceOnUse" gradientTransform="matrix(2117.89,-476.498,476.498,2117.89,2522.5,5545.92)"><stop offset="0" style="stop-color:rgb(0,255,191);stop-opacity:1"/><stop offset="1" style="stop-color:rgb(0,189,223);stop-opacity:1"/></linearGradient>
        <linearGradient id="_Linear18" x1="0" y1="0" x2="1" y2="0" gradientUnits="userSpaceOnUse" gradientTransform="matrix(-1140.53,-314.648,314.648,-1140.53,3648.08,5553.24)"><stop offset="0" style="stop-color:rgb(255,0,0);stop-opacity:1"/><stop offset="1" style="stop-color:rgb(223,0,130);stop-opacity:1"/></linearGradient>
        <linearGradient id="_Linear19" x1="0" y1="0" x2="1" y2="0" gradientUnits="userSpaceOnUse" gradientTransform="matrix(-1140.53,-314.648,314.648,-1140.53,3648.08,5553.24)"><stop offset="0" style="stop-color:rgb(255,0,0);stop-opacity:1"/><stop offset="1" style="stop-color:rgb(223,0,130);stop-opacity:1"/></linearGradient>
        <linearGradient id="_Linear20" x1="0" y1="0" x2="1" y2="0" gradientUnits="userSpaceOnUse" gradientTransform="matrix(-1140.53,-314.648,314.648,-1140.53,3648.08,5553.24)"><stop offset="0" style="stop-color:rgb(255,0,0);stop-opacity:1"/><stop offset="1" style="stop-color:rgb(223,0,130);stop-opacity:1"/></linearGradient>
        <linearGradient id="_Linear21" x1="0" y1="0" x2="1" y2="0" gradientUnits="userSpaceOnUse" gradientTransform="matrix(-1140.53,-314.648,314.648,-1140.53,3648.08,5553.24)"><stop offset="0" style="stop-color:rgb(255,0,0);stop-opacity:1"/><stop offset="1" style="stop-color:rgb(223,0,130);stop-opacity:1"/></linearGradient>
    </defs>
    <script>//<![CDATA[
        window.addEventListener("DOMContentLoaded", () => {




          let colorful_layers = ["Code-colorful", "Use-colorful", "Build-colorful", "Reuse-colorful"];

          console.log(colorful_layers.length)

          var setOpacity = (elemId, opacity) => {
            document.getElementById(elemId).style['opacity'] = opacity;
          };

          // grayout all colorful layers
          for(var l of colorful_layers) {
            setOpacity(l, 0.0);            
          }

          setOpacity(colorful_layers[0], 1.0);  


          var curr_ix = 0;         

          var highlightNext = () => {
            var current = colorful_layers[curr_ix];
            setOpacity(current, 0.0);

            curr_ix++;

            if(curr_ix >= colorful_layers.length) curr_ix = 0;

            var next = colorful_layers[curr_ix];
            setOpacity(next, 1.0);
          }          

          setInterval(highlightNext, 4000)
          
        });
    //]]>
    </script>
</svg>
